<?xml version="1.0" encoding="UTF-8" standalone="no"?>
<!-- Created with Inkscape (http://www.inkscape.org/) -->

<svg
   width="955.177"
   height="1026.6848"
   viewBox="0 0 252.72391 271.64369"
   version="1.1"
   id="svg1"
   xml:space="preserve"
   inkscape:version="1.3 (0e150ed6c4, 2023-07-21)"
   sodipodi:docname="yellow_apple.svg"
   xmlns:inkscape="http://www.inkscape.org/namespaces/inkscape"
   xmlns:sodipodi="http://sodipodi.sourceforge.net/DTD/sodipodi-0.dtd"
   xmlns="http://www.w3.org/2000/svg"
   xmlns:svg="http://www.w3.org/2000/svg"><sodipodi:namedview
     id="namedview1"
     pagecolor="#ffffff"
     bordercolor="#666666"
     borderopacity="1.0"
     inkscape:showpageshadow="2"
     inkscape:pageopacity="0.0"
     inkscape:pagecheckerboard="0"
     inkscape:deskcolor="#d1d1d1"
     inkscape:document-units="mm"
     inkscape:zoom="0.54236816"
     inkscape:cx="535.61404"
     inkscape:cy="629.64611"
     inkscape:window-width="1920"
     inkscape:window-height="1057"
     inkscape:window-x="1912"
     inkscape:window-y="-8"
     inkscape:window-maximized="1"
     inkscape:current-layer="layer2" /><defs
     id="defs1"><inkscape:path-effect
       effect="spiro"
       id="path-effect1"
       is_visible="true"
       lpeversion="1" /></defs><g
     inkscape:groupmode="layer"
     id="layer2"
     inkscape:label="Apple"
     transform="matrix(7,0,0,7,-107.49525,-116.86311)"><path
       style="fill:none;stroke:#894835;stroke-width:3.175;stroke-linecap:round;stroke-linejoin:miter;stroke-dasharray:none;stroke-opacity:1"
       d="m 34.149825,28.889373 c 0,0 -1.207315,-3.10453 -0.431184,-6.554007 0.776132,-3.449478 1.72474,-4.053136 1.72474,-4.053136"
       id="path4" /><path
       style="fill:#e4cd5a;fill-opacity:1;stroke:#e4cd5a;stroke-width:0.264583px;stroke-linecap:butt;stroke-linejoin:miter;stroke-opacity:1"
       d="m 15.854467,40.733784 c -2.073276,-13.171403 5.159307,-18.04431 9.30586,-16.824736 4.146554,1.219575 8.80576,0.978322 8.80576,0.978322 0,0 3.227525,0.235863 7.374079,-0.983712 4.146553,-1.219574 11.707914,3.658723 9.634638,16.830126 -2.073277,13.171405 -12.378679,14.147065 -16.980871,14.634894 -4.602191,10e-7 -16.066189,-1.463489 -18.139466,-14.634894 z"
       id="path1"
       sodipodi:nodetypes="sscsscs" /><ellipse
       style="fill:#fad5af;fill-opacity:1;stroke:#e4cd5a;stroke-width:0;stroke-linecap:round;stroke-dasharray:none"
       id="path2"
       cx="25.709749"
       cy="51.683784"
       rx="1.8666444"
       ry="4.7889161"
       transform="matrix(0.81772866,-0.57560389,0.49027676,0.87156681,0,0)" /><ellipse
       style="opacity:1;fill:#b59857;fill-opacity:1;stroke:#894835;stroke-width:0;stroke-linecap:round;stroke-dasharray:none"
       id="path3"
       cx="57.243324"
       cy="20.726521"
       rx="7.5559645"
       ry="2.9791715"
       transform="matrix(0.73976532,0.67286498,-0.87499524,0.48413152,0,0)" /></g></svg>
