<?xml version="1.0" encoding="UTF-8" standalone="no"?>
<!-- Created with Inkscape (http://www.inkscape.org/) -->

<svg
   width="991.25665"
   height="534.67578"
   viewBox="0 0 262.26999 141.4663"
   version="1.1"
   id="svg1"
   inkscape:version="1.3 (0e150ed6c4, 2023-07-21)"
   sodipodi:docname="salmon_headless.svg"
   xmlns:inkscape="http://www.inkscape.org/namespaces/inkscape"
   xmlns:sodipodi="http://sodipodi.sourceforge.net/DTD/sodipodi-0.dtd"
   xmlns="http://www.w3.org/2000/svg"
   xmlns:svg="http://www.w3.org/2000/svg">
  <sodipodi:namedview
     id="namedview1"
     pagecolor="#ffffff"
     bordercolor="#666666"
     borderopacity="1.0"
     inkscape:showpageshadow="2"
     inkscape:pageopacity="0.0"
     inkscape:pagecheckerboard="0"
     inkscape:deskcolor="#d1d1d1"
     inkscape:document-units="mm"
     inkscape:zoom="0.36925856"
     inkscape:cx="334.454"
     inkscape:cy="488.81738"
     inkscape:window-width="1920"
     inkscape:window-height="1057"
     inkscape:window-x="1912"
     inkscape:window-y="-8"
     inkscape:window-maximized="1"
     inkscape:current-layer="layer1" />
  <defs
     id="defs1" />
  <g
     inkscape:label="Layer 1"
     inkscape:groupmode="layer"
     id="layer1"
     transform="translate(78.636104,36.876756)">
    <path
       id="rect1"
       style="fill:#9da5ae;stroke:none;stroke-width:30.1184;stroke-linecap:round;stroke-linejoin:round;paint-order:stroke fill markers"
       d="M -78.636104,-36.876756 V 104.58954 H 81.694911 c 45.338229,0 93.435949,-44.098467 101.938979,-37.32485 V 0.44809611 C 175.13182,7.2209466 127.02786,-36.876756 81.694911,-36.876756"
       sodipodi:nodetypes="cccccc" />
    <path
       style="fill:none;stroke:#59607a;stroke-width:18.7995;stroke-linecap:round;stroke-linejoin:miter;stroke-dasharray:none;stroke-opacity:1"
       d="M -56.431607,86.18205 H 96.894563"
       id="path3" />
    <g
       id="g7"
       transform="matrix(6.5,0,0,6.5,-187.91137,-183.42445)"
       style="fill:#787d8b">
      <path
         id="path4"
         style="fill:#787d8b;stroke:none;stroke-width:3.93459;stroke-linecap:round;stroke-linejoin:round;stroke-dasharray:none;paint-order:stroke fill markers"
         d="m 22.570727,27.810387 a 3.8513269,2.0152292 0 0 0 3.851444,2.014864 3.8513269,2.0152292 0 0 0 0.178801,-0.0062 v -4.017842 a 3.8513269,2.0152292 0 0 0 -0.178801,-0.0062 3.8513269,2.0152292 0 0 0 -3.851444,2.015381 z" />
      <path
         id="path5"
         style="fill:#787d8b;stroke:none;stroke-width:3.93459;stroke-linecap:round;stroke-linejoin:round;stroke-dasharray:none;paint-order:stroke fill markers"
         d="m 22.570727,31.840629 a 3.8513269,2.0152292 0 0 0 3.851444,2.014864 3.8513269,2.0152292 0 0 0 0.178801,-0.0062 v -4.017842 a 3.8513269,2.0152292 0 0 0 -0.178801,-0.0062 3.8513269,2.0152292 0 0 0 -3.851444,2.015381 z" />
      <path
         id="path6"
         style="fill:#787d8b;stroke:none;stroke-width:3.93459;stroke-linecap:round;stroke-linejoin:round;stroke-dasharray:none;paint-order:stroke fill markers"
         d="m 22.570727,35.870871 a 3.8513269,2.0152292 0 0 0 3.851444,2.014864 3.8513269,2.0152292 0 0 0 0.178801,-0.0062 v -4.017842 a 3.8513269,2.0152292 0 0 0 -0.178801,-0.0062 3.8513269,2.0152292 0 0 0 -3.851444,2.015381 z" />
    </g>
    <g
       id="g9"
       transform="matrix(6.5,0,0,6.5,-123.87186,-183.42445)">
      <path
         id="path7"
         style="fill:#59607a;stroke:none;stroke-width:3.93459;stroke-linecap:round;stroke-linejoin:round;stroke-dasharray:none;paint-order:stroke fill markers"
         d="m 22.570727,27.810387 a 3.8513269,2.0152292 0 0 0 3.851444,2.014864 3.8513269,2.0152292 0 0 0 0.178801,-0.0062 v -4.017842 a 3.8513269,2.0152292 0 0 0 -0.178801,-0.0062 3.8513269,2.0152292 0 0 0 -3.851444,2.015381 z" />
      <path
         id="path8"
         style="fill:#59607a;stroke:none;stroke-width:3.93459;stroke-linecap:round;stroke-linejoin:round;stroke-dasharray:none;paint-order:stroke fill markers"
         d="m 22.570727,31.840629 a 3.8513269,2.0152292 0 0 0 3.851444,2.014864 3.8513269,2.0152292 0 0 0 0.178801,-0.0062 v -4.017842 a 3.8513269,2.0152292 0 0 0 -0.178801,-0.0062 3.8513269,2.0152292 0 0 0 -3.851444,2.015381 z" />
      <path
         id="path9"
         style="fill:#59607a;stroke:none;stroke-width:3.93459;stroke-linecap:round;stroke-linejoin:round;stroke-dasharray:none;paint-order:stroke fill markers"
         d="m 22.570727,35.870871 a 3.8513269,2.0152292 0 0 0 3.851444,2.014864 3.8513269,2.0152292 0 0 0 0.178801,-0.0062 v -4.017842 a 3.8513269,2.0152292 0 0 0 -0.178801,-0.0062 3.8513269,2.0152292 0 0 0 -3.851444,2.015381 z" />
    </g>
    <g
       id="g12"
       transform="matrix(6.5,0,0,6.5,-123.87186,-183.42445)"
       style="fill:#787d8b">
      <path
         id="path10"
         style="fill:#787d8b;stroke:none;stroke-width:3.93459;stroke-linecap:round;stroke-linejoin:round;stroke-dasharray:none;paint-order:stroke fill markers"
         d="m 22.570727,27.810387 a 3.8513269,2.0152292 0 0 0 3.851444,2.014864 3.8513269,2.0152292 0 0 0 0.178801,-0.0062 v -4.017842 a 3.8513269,2.0152292 0 0 0 -0.178801,-0.0062 3.8513269,2.0152292 0 0 0 -3.851444,2.015381 z" />
      <path
         id="path11"
         style="fill:#787d8b;stroke:none;stroke-width:3.93459;stroke-linecap:round;stroke-linejoin:round;stroke-dasharray:none;paint-order:stroke fill markers"
         d="m 22.570727,31.840629 a 3.8513269,2.0152292 0 0 0 3.851444,2.014864 3.8513269,2.0152292 0 0 0 0.178801,-0.0062 v -4.017842 a 3.8513269,2.0152292 0 0 0 -0.178801,-0.0062 3.8513269,2.0152292 0 0 0 -3.851444,2.015381 z" />
      <path
         id="path12"
         style="fill:#787d8b;stroke:none;stroke-width:3.93459;stroke-linecap:round;stroke-linejoin:round;stroke-dasharray:none;paint-order:stroke fill markers"
         d="m 22.570727,35.870871 a 3.8513269,2.0152292 0 0 0 3.851444,2.014864 3.8513269,2.0152292 0 0 0 0.178801,-0.0062 v -4.017842 a 3.8513269,2.0152292 0 0 0 -0.178801,-0.0062 3.8513269,2.0152292 0 0 0 -3.851444,2.015381 z" />
    </g>
    <g
       id="g15"
       transform="matrix(6.5,0,0,6.5,-59.832358,-183.42445)"
       style="fill:#787d8b">
      <path
         id="path13"
         style="fill:#787d8b;stroke:none;stroke-width:3.93459;stroke-linecap:round;stroke-linejoin:round;stroke-dasharray:none;paint-order:stroke fill markers"
         d="m 22.570727,27.810387 a 3.8513269,2.0152292 0 0 0 3.851444,2.014864 3.8513269,2.0152292 0 0 0 0.178801,-0.0062 v -4.017842 a 3.8513269,2.0152292 0 0 0 -0.178801,-0.0062 3.8513269,2.0152292 0 0 0 -3.851444,2.015381 z" />
      <path
         id="path14"
         style="fill:#787d8b;stroke:none;stroke-width:3.93459;stroke-linecap:round;stroke-linejoin:round;stroke-dasharray:none;paint-order:stroke fill markers"
         d="m 22.570727,31.840629 a 3.8513269,2.0152292 0 0 0 3.851444,2.014864 3.8513269,2.0152292 0 0 0 0.178801,-0.0062 v -4.017842 a 3.8513269,2.0152292 0 0 0 -0.178801,-0.0062 3.8513269,2.0152292 0 0 0 -3.851444,2.015381 z" />
      <path
         id="path15"
         style="fill:#787d8b;stroke:none;stroke-width:3.93459;stroke-linecap:round;stroke-linejoin:round;stroke-dasharray:none;paint-order:stroke fill markers"
         d="m 22.570727,35.870871 a 3.8513269,2.0152292 0 0 0 3.851444,2.014864 3.8513269,2.0152292 0 0 0 0.178801,-0.0062 v -4.017842 a 3.8513269,2.0152292 0 0 0 -0.178801,-0.0062 3.8513269,2.0152292 0 0 0 -3.851444,2.015381 z" />
    </g>
  </g>
</svg>
