<?xml version="1.0" encoding="UTF-8" standalone="no"?>
<!-- Created with Inkscape (http://www.inkscape.org/) -->

<svg
   width="1574.9613"
   height="550.12445"
   viewBox="0 0 416.7085 145.55376"
   version="1.1"
   id="svg1"
   inkscape:version="1.3 (0e150ed6c4, 2023-07-21)"
   sodipodi:docname="salmon_whole.svg"
   xmlns:inkscape="http://www.inkscape.org/namespaces/inkscape"
   xmlns:sodipodi="http://sodipodi.sourceforge.net/DTD/sodipodi-0.dtd"
   xmlns="http://www.w3.org/2000/svg"
   xmlns:svg="http://www.w3.org/2000/svg">
  <sodipodi:namedview
     id="namedview1"
     pagecolor="#ffffff"
     bordercolor="#666666"
     borderopacity="1.0"
     inkscape:showpageshadow="2"
     inkscape:pageopacity="0.0"
     inkscape:pagecheckerboard="0"
     inkscape:deskcolor="#d1d1d1"
     inkscape:document-units="mm"
     inkscape:zoom="0.26110523"
     inkscape:cx="181.91899"
     inkscape:cy="258.51646"
     inkscape:window-width="1920"
     inkscape:window-height="1057"
     inkscape:window-x="1912"
     inkscape:window-y="-8"
     inkscape:window-maximized="1"
     inkscape:current-layer="layer1" />
  <defs
     id="defs1" />
  <g
     inkscape:label="Layer 1"
     inkscape:groupmode="layer"
     id="layer1"
     transform="translate(174.18855,38.90835)">
    <path
       id="rect1"
       style="fill:#9da5ae;stroke-width:30.1184;stroke-linecap:round;stroke-linejoin:round;paint-order:stroke fill markers"
       d="M -78.636104,-36.876756 V 104.58954 H 81.694911 c 45.338229,0 93.435949,-44.098467 101.938979,-37.32485 l 48.31876,38.49041 c 4.57844,3.64724 10.56731,-4.71372 10.56731,-10.567313 V -27.475007 c 0,-6.096408 -6.13817,-14.095744 -10.56731,-10.567316 L 183.63389,0.44809611 C 175.13182,7.2209466 127.02786,-36.876756 81.694911,-36.876756"
       sodipodi:nodetypes="cccccssccc" />
    <path
       d="m -77.195288,-36.843587 c -41.712602,0 -88.743372,44.4463306 -91.509442,49.783383 -7.98865,15.413892 -6.60208,28.154458 0,41.833825 2.61936,5.427246 49.79684,49.783389 91.509442,49.783389"
       style="fill:#9da5ae;stroke-width:30.0046;stroke-linecap:round;stroke-linejoin:round;paint-order:stroke fill markers"
       id="path1"
       sodipodi:nodetypes="cssc" />
    <circle
       style="fill:#404863;stroke:none;stroke-width:27.5166;stroke-linecap:round;stroke-linejoin:round;paint-order:stroke fill markers"
       id="path2"
       cx="-112.8105"
       cy="2.9306848"
       r="18.047499" />
    <path
       style="fill:none;stroke:#59607a;stroke-width:20.6375;stroke-linecap:round;stroke-linejoin:miter;stroke-dasharray:none;stroke-opacity:1"
       d="M -89.634988,86.18205 H 95.13838"
       id="path3" />
    <g
       id="g7"
       transform="matrix(6.5,0,0,6.5,-187.91137,-183.42445)"
       style="fill:#787d8b">
      <path
         id="path4"
         style="fill:#787d8b;stroke:none;stroke-width:3.93459;stroke-linecap:round;stroke-linejoin:round;stroke-dasharray:none;paint-order:stroke fill markers"
         d="m 22.570727,27.810387 a 3.8513269,2.0152292 0 0 0 3.851444,2.014864 3.8513269,2.0152292 0 0 0 0.178801,-0.0062 v -4.017842 a 3.8513269,2.0152292 0 0 0 -0.178801,-0.0062 3.8513269,2.0152292 0 0 0 -3.851444,2.015381 z" />
      <path
         id="path5"
         style="fill:#787d8b;stroke:none;stroke-width:3.93459;stroke-linecap:round;stroke-linejoin:round;stroke-dasharray:none;paint-order:stroke fill markers"
         d="m 22.570727,31.840629 a 3.8513269,2.0152292 0 0 0 3.851444,2.014864 3.8513269,2.0152292 0 0 0 0.178801,-0.0062 v -4.017842 a 3.8513269,2.0152292 0 0 0 -0.178801,-0.0062 3.8513269,2.0152292 0 0 0 -3.851444,2.015381 z" />
      <path
         id="path6"
         style="fill:#787d8b;stroke:none;stroke-width:3.93459;stroke-linecap:round;stroke-linejoin:round;stroke-dasharray:none;paint-order:stroke fill markers"
         d="m 22.570727,35.870871 a 3.8513269,2.0152292 0 0 0 3.851444,2.014864 3.8513269,2.0152292 0 0 0 0.178801,-0.0062 v -4.017842 a 3.8513269,2.0152292 0 0 0 -0.178801,-0.0062 3.8513269,2.0152292 0 0 0 -3.851444,2.015381 z" />
    </g>
    <g
       id="g9"
       transform="matrix(6.5,0,0,6.5,-123.87186,-183.42445)">
      <path
         id="path7"
         style="fill:#59607a;stroke:none;stroke-width:3.93459;stroke-linecap:round;stroke-linejoin:round;stroke-dasharray:none;paint-order:stroke fill markers"
         d="m 22.570727,27.810387 a 3.8513269,2.0152292 0 0 0 3.851444,2.014864 3.8513269,2.0152292 0 0 0 0.178801,-0.0062 v -4.017842 a 3.8513269,2.0152292 0 0 0 -0.178801,-0.0062 3.8513269,2.0152292 0 0 0 -3.851444,2.015381 z" />
      <path
         id="path8"
         style="fill:#59607a;stroke:none;stroke-width:3.93459;stroke-linecap:round;stroke-linejoin:round;stroke-dasharray:none;paint-order:stroke fill markers"
         d="m 22.570727,31.840629 a 3.8513269,2.0152292 0 0 0 3.851444,2.014864 3.8513269,2.0152292 0 0 0 0.178801,-0.0062 v -4.017842 a 3.8513269,2.0152292 0 0 0 -0.178801,-0.0062 3.8513269,2.0152292 0 0 0 -3.851444,2.015381 z" />
      <path
         id="path9"
         style="fill:#59607a;stroke:none;stroke-width:3.93459;stroke-linecap:round;stroke-linejoin:round;stroke-dasharray:none;paint-order:stroke fill markers"
         d="m 22.570727,35.870871 a 3.8513269,2.0152292 0 0 0 3.851444,2.014864 3.8513269,2.0152292 0 0 0 0.178801,-0.0062 v -4.017842 a 3.8513269,2.0152292 0 0 0 -0.178801,-0.0062 3.8513269,2.0152292 0 0 0 -3.851444,2.015381 z" />
    </g>
    <g
       id="g12"
       transform="matrix(6.5,0,0,6.5,-123.87186,-183.42445)"
       style="fill:#787d8b">
      <path
         id="path10"
         style="fill:#787d8b;stroke:none;stroke-width:3.93459;stroke-linecap:round;stroke-linejoin:round;stroke-dasharray:none;paint-order:stroke fill markers"
         d="m 22.570727,27.810387 a 3.8513269,2.0152292 0 0 0 3.851444,2.014864 3.8513269,2.0152292 0 0 0 0.178801,-0.0062 v -4.017842 a 3.8513269,2.0152292 0 0 0 -0.178801,-0.0062 3.8513269,2.0152292 0 0 0 -3.851444,2.015381 z" />
      <path
         id="path11"
         style="fill:#787d8b;stroke:none;stroke-width:3.93459;stroke-linecap:round;stroke-linejoin:round;stroke-dasharray:none;paint-order:stroke fill markers"
         d="m 22.570727,31.840629 a 3.8513269,2.0152292 0 0 0 3.851444,2.014864 3.8513269,2.0152292 0 0 0 0.178801,-0.0062 v -4.017842 a 3.8513269,2.0152292 0 0 0 -0.178801,-0.0062 3.8513269,2.0152292 0 0 0 -3.851444,2.015381 z" />
      <path
         id="path12"
         style="fill:#787d8b;stroke:none;stroke-width:3.93459;stroke-linecap:round;stroke-linejoin:round;stroke-dasharray:none;paint-order:stroke fill markers"
         d="m 22.570727,35.870871 a 3.8513269,2.0152292 0 0 0 3.851444,2.014864 3.8513269,2.0152292 0 0 0 0.178801,-0.0062 v -4.017842 a 3.8513269,2.0152292 0 0 0 -0.178801,-0.0062 3.8513269,2.0152292 0 0 0 -3.851444,2.015381 z" />
    </g>
    <g
       id="g15"
       transform="matrix(6.5,0,0,6.5,-59.832358,-183.42445)"
       style="fill:#787d8b">
      <path
         id="path13"
         style="fill:#787d8b;stroke:none;stroke-width:3.93459;stroke-linecap:round;stroke-linejoin:round;stroke-dasharray:none;paint-order:stroke fill markers"
         d="m 22.570727,27.810387 a 3.8513269,2.0152292 0 0 0 3.851444,2.014864 3.8513269,2.0152292 0 0 0 0.178801,-0.0062 v -4.017842 a 3.8513269,2.0152292 0 0 0 -0.178801,-0.0062 3.8513269,2.0152292 0 0 0 -3.851444,2.015381 z" />
      <path
         id="path14"
         style="fill:#787d8b;stroke:none;stroke-width:3.93459;stroke-linecap:round;stroke-linejoin:round;stroke-dasharray:none;paint-order:stroke fill markers"
         d="m 22.570727,31.840629 a 3.8513269,2.0152292 0 0 0 3.851444,2.014864 3.8513269,2.0152292 0 0 0 0.178801,-0.0062 v -4.017842 a 3.8513269,2.0152292 0 0 0 -0.178801,-0.0062 3.8513269,2.0152292 0 0 0 -3.851444,2.015381 z" />
      <path
         id="path15"
         style="fill:#787d8b;stroke:none;stroke-width:3.93459;stroke-linecap:round;stroke-linejoin:round;stroke-dasharray:none;paint-order:stroke fill markers"
         d="m 22.570727,35.870871 a 3.8513269,2.0152292 0 0 0 3.851444,2.014864 3.8513269,2.0152292 0 0 0 0.178801,-0.0062 v -4.017842 a 3.8513269,2.0152292 0 0 0 -0.178801,-0.0062 3.8513269,2.0152292 0 0 0 -3.851444,2.015381 z" />
    </g>
    <path
       d="m 231.95265,105.7551 c 4.57844,3.64724 10.56731,-4.71372 10.56731,-10.567313 V -27.475007 c 0,-6.096408 -6.13817,-14.095744 -10.56731,-10.567316"
       style="fill:#787d8b;stroke-width:30.1184;stroke-linecap:round;stroke-linejoin:round;paint-order:stroke fill markers"
       id="path1-3" />
  </g>
</svg>
