<?xml version="1.0" encoding="UTF-8" standalone="no"?>
<!-- Created with Inkscape (http://www.inkscape.org/) -->

<svg
   width="938.89453"
   height="1013.7758"
   viewBox="0 0 248.41584 268.22817"
   version="1.1"
   id="svg1"
   xml:space="preserve"
   inkscape:version="1.3 (0e150ed6c4, 2023-07-21)"
   sodipodi:docname="onion_yellow.svg"
   xmlns:inkscape="http://www.inkscape.org/namespaces/inkscape"
   xmlns:sodipodi="http://sodipodi.sourceforge.net/DTD/sodipodi-0.dtd"
   xmlns="http://www.w3.org/2000/svg"
   xmlns:svg="http://www.w3.org/2000/svg"><sodipodi:namedview
     id="namedview1"
     pagecolor="#ffffff"
     bordercolor="#666666"
     borderopacity="1.0"
     inkscape:showpageshadow="2"
     inkscape:pageopacity="0.0"
     inkscape:pagecheckerboard="0"
     inkscape:deskcolor="#d1d1d1"
     inkscape:document-units="mm"
     inkscape:zoom="0.26614466"
     inkscape:cx="-221.68396"
     inkscape:cy="490.33485"
     inkscape:window-width="1920"
     inkscape:window-height="1057"
     inkscape:window-x="-8"
     inkscape:window-y="-8"
     inkscape:window-maximized="1"
     inkscape:current-layer="layer2" /><defs
     id="defs1" /><g
     inkscape:groupmode="layer"
     id="layer2"
     inkscape:label="Layer 2"
     transform="translate(90.341512,100.22962)"><g
       id="g5"
       transform="matrix(6,0,0,6,-169.33204,-169.4223)"><rect
         style="fill:#be5a1e;stroke:none;stroke-width:5.46038;stroke-linecap:round;stroke-linejoin:round;paint-order:stroke fill markers"
         id="rect4"
         width="15.640827"
         height="5.2136102"
         x="26.046253"
         y="51.023197"
         rx="3.205719"
         ry="1.7631457" /><path
         id="path2"
         style="fill:#f1934c;stroke:none;stroke-width:3.96553;stroke-linecap:round;stroke-linejoin:round;paint-order:stroke fill markers"
         d="m 33.866667,11.532113 c -1.022277,0 -1.845366,0.609561 -1.845366,1.366841 v 2.443779 c -0.687551,0.777001 -1.621302,1.586735 -2.903182,2.319238 -0.573155,0.327518 -1.118126,0.606542 -1.64331,0.856795 -2.869436,1.367311 -5.146499,1.878776 -8.143689,4.659147 A 20.70126,18.067303 0 0 0 13.165088,35.977649 20.70126,18.067303 0 0 0 33.86615,54.044763 20.70126,18.067303 0 0 0 54.567729,35.977649 20.70126,18.067303 0 0 0 47.400724,22.307166 c -3.043335,-2.456185 -5.437389,-2.733461 -8.782926,-4.645195 -1.283802,-0.733601 -2.218005,-1.54479 -2.905766,-2.322856 v -2.440161 c 0,-0.75728 -0.823089,-1.366841 -1.845365,-1.366841 z" /><ellipse
         style="fill:#fad5af;stroke:none;stroke-width:4.23333;stroke-linecap:round;stroke-linejoin:round;paint-order:stroke fill markers"
         id="path5"
         cx="51.936012"
         cy="-3.5853426"
         rx="5.6541343"
         ry="2.4853339"
         transform="rotate(34.033239)" /><ellipse
         style="fill:#d68552;stroke:none;stroke-width:5.73345;stroke-linecap:round;stroke-linejoin:round;paint-order:stroke fill markers"
         id="ellipse5"
         cx="42.629604"
         cy="21.862347"
         rx="7.4303403"
         ry="3.4690425"
         transform="matrix(0.78292167,0.6221203,-0.49781369,0.867284,0,0)" /></g></g></svg>
