<?xml version="1.0" encoding="UTF-8" standalone="no"?>
<!-- Created with Inkscape (http://www.inkscape.org/) -->

<svg
   width="938.89453"
   height="1013.7758"
   viewBox="0 0 248.41584 268.22817"
   version="1.1"
   id="svg1"
   xml:space="preserve"
   inkscape:version="1.3 (0e150ed6c4, 2023-07-21)"
   sodipodi:docname="onion_red_half.svg"
   xmlns:inkscape="http://www.inkscape.org/namespaces/inkscape"
   xmlns:sodipodi="http://sodipodi.sourceforge.net/DTD/sodipodi-0.dtd"
   xmlns="http://www.w3.org/2000/svg"
   xmlns:svg="http://www.w3.org/2000/svg"><sodipodi:namedview
     id="namedview1"
     pagecolor="#ffffff"
     bordercolor="#666666"
     borderopacity="1.0"
     inkscape:showpageshadow="2"
     inkscape:pageopacity="0.0"
     inkscape:pagecheckerboard="0"
     inkscape:deskcolor="#d1d1d1"
     inkscape:document-units="mm"
     inkscape:zoom="0.53228931"
     inkscape:cx="332.52593"
     inkscape:cy="453.70064"
     inkscape:window-width="1920"
     inkscape:window-height="1057"
     inkscape:window-x="-8"
     inkscape:window-y="-8"
     inkscape:window-maximized="1"
     inkscape:current-layer="g5" /><defs
     id="defs1" /><g
     inkscape:groupmode="layer"
     id="layer2"
     inkscape:label="Layer 2"
     transform="translate(90.341512,100.22962)"><g
       id="g5"
       transform="matrix(6,0,0,6,-169.33204,-169.4223)"><rect
         style="fill:#894835;stroke:none;stroke-width:5.46038;stroke-linecap:round;stroke-linejoin:round;paint-order:stroke fill markers"
         id="rect4"
         width="15.640827"
         height="5.2136102"
         x="26.046253"
         y="51.023197"
         rx="3.205719"
         ry="1.7631457" /><path
         id="path2"
         style="fill:#81173f;stroke:#81173f;stroke-width:0;stroke-linecap:round;stroke-linejoin:round;paint-order:stroke fill markers;stroke-dasharray:none"
         d="m 33.866667,11.532113 c -1.022277,0 -1.845366,0.609561 -1.845366,1.366841 v 2.443779 c -0.687551,0.777001 -1.621302,1.586735 -2.903182,2.319238 -0.573155,0.327518 -1.118126,0.606542 -1.64331,0.856795 -2.869436,1.367311 -5.146499,1.878776 -8.143689,4.659147 A 20.70126,18.067303 0 0 0 13.165088,35.977649 20.70126,18.067303 0 0 0 33.86615,54.044763 20.70126,18.067303 0 0 0 54.567729,35.977649 20.70126,18.067303 0 0 0 47.400724,22.307166 c -3.043335,-2.456185 -5.437389,-2.733461 -8.782926,-4.645195 -1.283802,-0.733601 -2.218005,-1.54479 -2.905766,-2.322856 v -2.440161 c 0,-0.75728 -0.823089,-1.366841 -1.845365,-1.366841 z" /><path
         id="path5"
         style="fill:#feffe5;stroke:#81173f;stroke-width:0;stroke-linecap:round;stroke-linejoin:round;stroke-dasharray:none;paint-order:stroke fill markers"
         d="m 29.270042,18.292742 c -0.554818,0.317038 -1.082352,0.587135 -1.590732,0.829381 -2.777629,1.323563 -4.981836,1.818664 -7.883131,4.510076 -3.801124,3.271323 -5.949554,7.731133 -5.968748,12.390207 1.15e-4,9.658902 8.971695,17.48896 20.038728,17.489053 11.067228,1.48e-4 20.039112,-7.829981 20.039227,-17.489053 -2.02e-4,-5.081176 -2.532368,-9.911077 -6.937695,-13.233093 -2.945964,-2.377599 -5.263419,-2.646004 -8.501914,-4.496571 -1.420001,-0.572172 -2.857193,-1.127152 -4.634112,-1.342405 -1.599683,0.1309 -3.080315,0.738005 -4.561623,1.342405 z"
         sodipodi:nodetypes="cscccccccc" /><path
         id="path6"
         style="fill:#81173f;stroke:#81173f;stroke-width:0;stroke-linecap:round;stroke-linejoin:round;stroke-dasharray:none;paint-order:stroke fill markers"
         d="m 29.953244,21.163198 c -0.47235,0.269914 -0.921472,0.499863 -1.354286,0.706103 -2.364764,1.126829 -4.241338,1.548338 -6.711386,3.8397 -3.236127,2.785075 -5.065215,6.58198 -5.081556,10.548531 9.8e-5,8.223207 7.638146,14.889409 17.06018,14.889488 9.4222,1.26e-4 17.060507,-6.666136 17.060605,-14.889488 -1.72e-4,-4.325911 -2.155958,-8.437898 -5.906479,-11.266131 -2.508077,-2.024194 -4.481067,-2.252703 -7.238193,-3.828203 -1.208933,-0.487124 -2.432501,-0.959612 -3.9453,-1.14287 -1.361907,0.111443 -2.622458,0.628308 -3.883585,1.14287 z"
         sodipodi:nodetypes="cscccccccc" /><path
         id="path7"
         style="fill:#feffe5;stroke:#81173f;stroke-width:0;stroke-linecap:round;stroke-linejoin:round;stroke-dasharray:none;paint-order:stroke fill markers"
         d="m 30.051665,21.525887 c -0.460471,0.263124 -0.898297,0.487291 -1.320227,0.688343 -2.305287,1.098489 -4.134664,1.509396 -6.542588,3.743129 -3.154734,2.715027 -4.937819,6.416437 -4.953749,10.283225 9.6e-5,8.016385 7.446039,14.514926 16.6311,14.515004 9.185222,1.23e-4 16.631419,-6.498477 16.631515,-14.515004 -1.67e-4,-4.21711 -2.101734,-8.225677 -5.757924,-10.982777 -2.444998,-1.973284 -4.368365,-2.196045 -7.056148,-3.73192 -1.178526,-0.474873 -2.37132,-0.935477 -3.846071,-1.114127 -1.327654,0.108642 -2.556501,0.612506 -3.785908,1.114127 z"
         sodipodi:nodetypes="cscccccccc" /><path
         id="path8"
         style="fill:#81173f;stroke:#81173f;stroke-width:0;stroke-linecap:round;stroke-linejoin:round;stroke-dasharray:none;paint-order:stroke fill markers"
         d="m 30.721746,23.995216 c -0.379587,0.216905 -0.740506,0.401695 -1.088322,0.567432 -1.90035,0.905533 -3.408387,1.244261 -5.393345,3.085627 -2.600588,2.238117 -4.070464,5.289354 -4.083596,8.476919 7.9e-5,6.608262 6.138101,11.965299 13.709755,11.965362 7.571786,1.02e-4 13.710017,-5.356982 13.710096,-11.965362 -1.38e-4,-3.476351 -1.732552,-6.780791 -4.746513,-9.053591 -2.01552,-1.626666 -3.601037,-1.810298 -5.816695,-3.076387 -0.971512,-0.39146 -1.954785,-0.771155 -3.170488,-0.918424 -1.094444,0.08956 -2.107437,0.504915 -3.120892,0.918424 z"
         sodipodi:nodetypes="cscccccccc" /><path
         id="path9"
         style="fill:#feffe5;stroke:#81173f;stroke-width:0;stroke-linecap:round;stroke-linejoin:round;stroke-dasharray:none;paint-order:stroke fill markers"
         d="m 30.852522,24.477142 c -0.3638,0.207885 -0.70971,0.38499 -1.043062,0.543835 -1.821321,0.867874 -3.266643,1.192515 -5.169054,2.957306 -2.492438,2.145041 -3.901186,5.069386 -3.913771,8.124391 7.5e-5,6.333447 5.882837,11.467701 13.13961,11.467762 7.2569,9.8e-5 13.139862,-5.134203 13.139937,-11.467762 -1.31e-4,-3.331781 -1.6605,-6.498799 -4.54912,-8.677082 -1.931702,-1.559018 -3.451282,-1.735014 -5.574797,-2.94845 -0.931111,-0.375181 -1.873493,-0.739085 -3.038639,-0.88023 -1.048929,0.08584 -2.019795,0.483918 -2.991104,0.88023 z"
         sodipodi:nodetypes="cscccccccc" /><path
         id="path10"
         style="fill:#81173f;stroke:#81173f;stroke-width:0;stroke-linecap:round;stroke-linejoin:round;stroke-dasharray:none;paint-order:stroke fill markers"
         d="m 31.536599,26.998047 c -0.281226,0.160701 -0.548624,0.297607 -0.806313,0.420399 -1.407927,0.670888 -2.525197,0.921843 -3.995808,2.286071 -1.926717,1.65817 -3.015714,3.918762 -3.025442,6.280357 5.8e-5,4.895913 4.547579,8.864819 10.157246,8.864866 5.609765,7.6e-5 10.157441,-3.968867 10.157499,-8.864866 -1.01e-4,-2.57555 -1.283608,-5.023734 -3.516583,-6.707601 -1.493254,-1.20516 -2.667927,-1.341209 -4.309457,-2.279226 -0.719772,-0.290024 -1.448257,-0.571331 -2.348944,-0.680439 -0.810848,0.06636 -1.561352,0.37408 -2.312198,0.680439 z"
         sodipodi:nodetypes="cscccccccc" /><path
         id="path11"
         style="fill:#feffe5;stroke:#81173f;stroke-width:0;stroke-linecap:round;stroke-linejoin:round;stroke-dasharray:none;paint-order:stroke fill markers"
         d="m 31.669614,27.488223 c -0.26517,0.151526 -0.517302,0.280616 -0.760278,0.396397 -1.327545,0.632586 -2.381027,0.869213 -3.767677,2.155554 -1.816716,1.5635 -2.843539,3.695029 -2.852712,5.921794 5.5e-5,4.616393 4.287946,8.358704 9.577342,8.358748 5.289489,7.1e-5 9.577526,-3.742274 9.577581,-8.358748 -9.5e-5,-2.428505 -1.210324,-4.736915 -3.315812,-6.324646 -1.408,-1.136354 -2.515608,-1.264636 -4.063419,-2.149099 -0.678678,-0.273466 -1.365572,-0.538712 -2.214837,-0.641591 -0.764554,0.06257 -1.47221,0.352723 -2.180188,0.641591 z"
         sodipodi:nodetypes="cscccccccc" /></g></g></svg>
