<?xml version="1.0" encoding="UTF-8" standalone="no"?>
<!-- Created with Inkscape (http://www.inkscape.org/) -->

<svg
   width="1043.1768"
   height="895.90601"
   viewBox="0 0 276.00719 237.04179"
   version="1.1"
   id="svg1"
   inkscape:version="1.3 (0e150ed6c4, 2023-07-21)"
   sodipodi:docname="blueberry.svg"
   xmlns:inkscape="http://www.inkscape.org/namespaces/inkscape"
   xmlns:sodipodi="http://sodipodi.sourceforge.net/DTD/sodipodi-0.dtd"
   xmlns="http://www.w3.org/2000/svg"
   xmlns:svg="http://www.w3.org/2000/svg">
  <sodipodi:namedview
     id="namedview1"
     pagecolor="#ffffff"
     bordercolor="#666666"
     borderopacity="1.0"
     inkscape:showpageshadow="2"
     inkscape:pageopacity="0.0"
     inkscape:pagecheckerboard="0"
     inkscape:deskcolor="#d1d1d1"
     inkscape:document-units="mm"
     inkscape:zoom="0.286688"
     inkscape:cx="-34.881125"
     inkscape:cy="831.91482"
     inkscape:window-width="1920"
     inkscape:window-height="1057"
     inkscape:window-x="-8"
     inkscape:window-y="-8"
     inkscape:window-maximized="1"
     inkscape:current-layer="layer1" />
  <defs
     id="defs1" />
  <g
     inkscape:label="Layer 1"
     inkscape:groupmode="layer"
     id="layer1"
     transform="translate(107.85095,75.417293)">
    <g
       id="g1"
       transform="matrix(6.75,0,0,6.75,-203.11115,-191.68253)">
      <ellipse
         style="opacity:1;fill:#4477ff;fill-opacity:1;stroke:#4477ff;stroke-width:0;stroke-linecap:round;paint-order:stroke markers fill"
         id="path2"
         cx="28.159451"
         cy="41.808159"
         rx="20.77706"
         ry="17.156683"
         transform="matrix(0.97373696,-0.22767596,0.17072508,0.9853187,0,0)" />
      <ellipse
         style="opacity:1;fill:#4cc5e4;fill-opacity:1;stroke:#2749d0;stroke-width:0;stroke-linecap:round;paint-order:stroke markers fill"
         id="path3"
         cx="9.6812811"
         cy="52.638561"
         rx="1.7623138"
         ry="4.2464428"
         transform="matrix(0.55347232,-0.83286757,0.79844266,0.60207085,0,0)" />
      <g
         id="g5"
         transform="matrix(1.4541189,0,0,1.4541189,-12.512035,-12.390893)">
        <ellipse
           style="opacity:1;fill:#2749d0;fill-opacity:1;stroke:#2749d0;stroke-width:0;stroke-linecap:round;paint-order:stroke markers fill"
           id="ellipse2"
           cx="24.289331"
           cy="33.629665"
           rx="5.8258781"
           ry="4.6790814"
           transform="matrix(0.97521822,-0.22124517,0.17579541,0.98442672,0,0)" />
        <path
           style="fill:#4477ff;stroke:none;stroke-width:0.268099px;stroke-linecap:butt;stroke-linejoin:miter;stroke-opacity:1"
           d="m 35.585274,24.793118 c 0,0 -3.582702,0.786446 -0.174766,3.801161 0,0 -5.374053,-2.599645 -2.403031,2.905482 0,0 -4.52207,-4.784217 -3.975926,1.463665 0,0 -0.961213,-6.444494 -3.451628,-0.436915 0,0 0.72091,-5.319438 -2.457645,-1.97704 0,0 1.092286,1.507357 2.457645,1.97704 0,0 1.310745,0.589835 3.451628,0.469684 0,0 2.131238,-0.162809 3.977187,-1.498998 0,0 1.660582,-1.135375 2.402051,-2.896363 0,0 0.920518,-2.04669 0.174485,-3.807716 z"
           id="path4" />
      </g>
      <ellipse
         style="opacity:1;fill:#2749d0;fill-opacity:1;stroke:none;stroke-width:0;stroke-linecap:round;paint-order:stroke markers fill"
         id="path5"
         cx="45.680321"
         cy="23.569639"
         rx="4.778265"
         ry="1.5311568"
         transform="rotate(38.102347)" />
    </g>
  </g>
</svg>
