<?xml version="1.0" encoding="UTF-8" standalone="no"?>
<!-- Created with Inkscape (http://www.inkscape.org/) -->

<svg
   width="256"
   height="256"
   viewBox="0 0 67.733332 67.733333"
   version="1.1"
   id="svg1"
   inkscape:version="1.3 (0e150ed6c4, 2023-07-21)"
   sodipodi:docname="raspberry.svg"
   xmlns:inkscape="http://www.inkscape.org/namespaces/inkscape"
   xmlns:sodipodi="http://sodipodi.sourceforge.net/DTD/sodipodi-0.dtd"
   xmlns="http://www.w3.org/2000/svg"
   xmlns:svg="http://www.w3.org/2000/svg">
  <sodipodi:namedview
     id="namedview1"
     pagecolor="#ffffff"
     bordercolor="#666666"
     borderopacity="1.0"
     inkscape:showpageshadow="2"
     inkscape:pageopacity="0.0"
     inkscape:pagecheckerboard="0"
     inkscape:deskcolor="#d1d1d1"
     inkscape:document-units="mm"
     inkscape:zoom="2.1694726"
     inkscape:cx="63.148987"
     inkscape:cy="128.37221"
     inkscape:window-width="1920"
     inkscape:window-height="1057"
     inkscape:window-x="-8"
     inkscape:window-y="-8"
     inkscape:window-maximized="1"
     inkscape:current-layer="layer1" />
  <defs
     id="defs1" />
  <g
     inkscape:label="Layer 1"
     inkscape:groupmode="layer"
     id="layer1">
    <g
       id="g12"
       transform="translate(6.8982178)">
      <g
         id="g10"
         transform="translate(-6.91502,-0.0646777)">
        <circle
           style="fill:#ff82a0;stroke:none;stroke-width:0;stroke-linecap:round;paint-order:stroke markers fill"
           id="circle9"
           cx="22.939024"
           cy="27.682053"
           r="3.9668989" />
        <path
           id="path9"
           style="fill:#d16363;stroke:#d16363;stroke-width:0;stroke-linecap:round;paint-order:stroke markers fill"
           d="m 19.086557,26.865027 a 3.9668989,3.9668989 0 0 0 -0.114205,0.903304 3.9668989,3.9668989 0 0 0 3.966683,3.966683 3.9668989,3.9668989 0 0 0 3.966683,-3.966683 3.9668989,3.9668989 0 0 0 -0.02222,-0.415479 3.9668989,3.9668989 0 0 1 -3.858163,3.088701 3.9668989,3.9668989 0 0 1 -3.938778,-3.576526 z" />
      </g>
      <g
         id="g11">
        <circle
           style="fill:#ff82a0;stroke:none;stroke-width:0;stroke-linecap:round;paint-order:stroke markers fill"
           id="circle10"
           cx="22.939024"
           cy="27.682053"
           r="3.9668989" />
        <path
           id="path10"
           style="fill:#d16363;stroke:#d16363;stroke-width:0;stroke-linecap:round;paint-order:stroke markers fill"
           d="m 19.086557,26.865027 a 3.9668989,3.9668989 0 0 0 -0.114205,0.903304 3.9668989,3.9668989 0 0 0 3.966683,3.966683 3.9668989,3.9668989 0 0 0 3.966683,-3.966683 3.9668989,3.9668989 0 0 0 -0.02222,-0.415479 3.9668989,3.9668989 0 0 1 -3.858163,3.088701 3.9668989,3.9668989 0 0 1 -3.938778,-3.576526 z" />
      </g>
    </g>
    <g
       id="g64"
       transform="translate(3.5993304,-2.8261907)">
      <g
         id="g60"
         transform="translate(7.866255,20.793744)">
        <g
           id="g58"
           transform="translate(-6.91502,-0.0646777)">
          <circle
             style="fill:#ff82a0;stroke:none;stroke-width:0;stroke-linecap:round;paint-order:stroke markers fill"
             id="circle57"
             cx="22.939024"
             cy="27.682053"
             r="3.9668989" />
          <path
             id="path57"
             style="fill:#d16363;stroke:#d16363;stroke-width:0;stroke-linecap:round;paint-order:stroke markers fill"
             d="m 19.086557,26.865027 a 3.9668989,3.9668989 0 0 0 -0.114205,0.903304 3.9668989,3.9668989 0 0 0 3.966683,3.966683 3.9668989,3.9668989 0 0 0 3.966683,-3.966683 3.9668989,3.9668989 0 0 0 -0.02222,-0.415479 3.9668989,3.9668989 0 0 1 -3.858163,3.088701 3.9668989,3.9668989 0 0 1 -3.938778,-3.576526 z" />
        </g>
        <g
           id="g59">
          <circle
             style="fill:#ff82a0;stroke:none;stroke-width:0;stroke-linecap:round;paint-order:stroke markers fill"
             id="circle58"
             cx="22.939024"
             cy="27.682053"
             r="3.9668989" />
          <path
             id="path58"
             style="fill:#d16363;stroke:#d16363;stroke-width:0;stroke-linecap:round;paint-order:stroke markers fill"
             d="m 19.086557,26.865027 a 3.9668989,3.9668989 0 0 0 -0.114205,0.903304 3.9668989,3.9668989 0 0 0 3.966683,3.966683 3.9668989,3.9668989 0 0 0 3.966683,-3.966683 3.9668989,3.9668989 0 0 0 -0.02222,-0.415479 3.9668989,3.9668989 0 0 1 -3.858163,3.088701 3.9668989,3.9668989 0 0 1 -3.938778,-3.576526 z" />
        </g>
      </g>
      <g
         id="g63"
         transform="translate(14.763723,20.793744)">
        <g
           id="g61"
           transform="translate(-6.91502,-0.0646777)">
          <circle
             style="fill:#ff82a0;stroke:none;stroke-width:0;stroke-linecap:round;paint-order:stroke markers fill"
             id="circle60"
             cx="22.939024"
             cy="27.682053"
             r="3.9668989" />
          <path
             id="path60"
             style="fill:#d16363;stroke:#d16363;stroke-width:0;stroke-linecap:round;paint-order:stroke markers fill"
             d="m 19.086557,26.865027 a 3.9668989,3.9668989 0 0 0 -0.114205,0.903304 3.9668989,3.9668989 0 0 0 3.966683,3.966683 3.9668989,3.9668989 0 0 0 3.966683,-3.966683 3.9668989,3.9668989 0 0 0 -0.02222,-0.415479 3.9668989,3.9668989 0 0 1 -3.858163,3.088701 3.9668989,3.9668989 0 0 1 -3.938778,-3.576526 z" />
        </g>
        <g
           id="g62">
          <circle
             style="fill:#ff82a0;stroke:none;stroke-width:0;stroke-linecap:round;paint-order:stroke markers fill"
             id="circle61"
             cx="22.939024"
             cy="27.682053"
             r="3.9668989" />
          <path
             id="path61"
             style="fill:#d16363;stroke:#d16363;stroke-width:0;stroke-linecap:round;paint-order:stroke markers fill"
             d="m 19.086557,26.865027 a 3.9668989,3.9668989 0 0 0 -0.114205,0.903304 3.9668989,3.9668989 0 0 0 3.966683,3.966683 3.9668989,3.9668989 0 0 0 3.966683,-3.966683 3.9668989,3.9668989 0 0 0 -0.02222,-0.415479 3.9668989,3.9668989 0 0 1 -3.858163,3.088701 3.9668989,3.9668989 0 0 1 -3.938778,-3.576526 z" />
        </g>
      </g>
    </g>
    <g
       id="g57"
       transform="translate(4.1284971,-6.7695993)">
      <g
         id="g53"
         transform="translate(7.866255,20.793744)">
        <g
           id="g51"
           transform="translate(-6.91502,-0.0646777)">
          <circle
             style="fill:#ff82a0;stroke:none;stroke-width:0;stroke-linecap:round;paint-order:stroke markers fill"
             id="circle50"
             cx="22.939024"
             cy="27.682053"
             r="3.9668989" />
          <path
             id="path50"
             style="fill:#d16363;stroke:#d16363;stroke-width:0;stroke-linecap:round;paint-order:stroke markers fill"
             d="m 19.086557,26.865027 a 3.9668989,3.9668989 0 0 0 -0.114205,0.903304 3.9668989,3.9668989 0 0 0 3.966683,3.966683 3.9668989,3.9668989 0 0 0 3.966683,-3.966683 3.9668989,3.9668989 0 0 0 -0.02222,-0.415479 3.9668989,3.9668989 0 0 1 -3.858163,3.088701 3.9668989,3.9668989 0 0 1 -3.938778,-3.576526 z" />
        </g>
        <g
           id="g52">
          <circle
             style="fill:#ff82a0;stroke:none;stroke-width:0;stroke-linecap:round;paint-order:stroke markers fill"
             id="circle51"
             cx="22.939024"
             cy="27.682053"
             r="3.9668989" />
          <path
             id="path51"
             style="fill:#d16363;stroke:#d16363;stroke-width:0;stroke-linecap:round;paint-order:stroke markers fill"
             d="m 19.086557,26.865027 a 3.9668989,3.9668989 0 0 0 -0.114205,0.903304 3.9668989,3.9668989 0 0 0 3.966683,3.966683 3.9668989,3.9668989 0 0 0 3.966683,-3.966683 3.9668989,3.9668989 0 0 0 -0.02222,-0.415479 3.9668989,3.9668989 0 0 1 -3.858163,3.088701 3.9668989,3.9668989 0 0 1 -3.938778,-3.576526 z" />
        </g>
      </g>
      <g
         id="g56"
         transform="translate(14.763723,20.793744)">
        <g
           id="g54"
           transform="translate(-6.91502,-0.0646777)">
          <circle
             style="fill:#ff82a0;stroke:none;stroke-width:0;stroke-linecap:round;paint-order:stroke markers fill"
             id="circle53"
             cx="22.939024"
             cy="27.682053"
             r="3.9668989" />
          <path
             id="path53"
             style="fill:#d16363;stroke:#d16363;stroke-width:0;stroke-linecap:round;paint-order:stroke markers fill"
             d="m 19.086557,26.865027 a 3.9668989,3.9668989 0 0 0 -0.114205,0.903304 3.9668989,3.9668989 0 0 0 3.966683,3.966683 3.9668989,3.9668989 0 0 0 3.966683,-3.966683 3.9668989,3.9668989 0 0 0 -0.02222,-0.415479 3.9668989,3.9668989 0 0 1 -3.858163,3.088701 3.9668989,3.9668989 0 0 1 -3.938778,-3.576526 z" />
        </g>
        <g
           id="g55">
          <circle
             style="fill:#ff82a0;stroke:none;stroke-width:0;stroke-linecap:round;paint-order:stroke markers fill"
             id="circle54"
             cx="22.939024"
             cy="27.682053"
             r="3.9668989" />
          <path
             id="path54"
             style="fill:#d16363;stroke:#d16363;stroke-width:0;stroke-linecap:round;paint-order:stroke markers fill"
             d="m 19.086557,26.865027 a 3.9668989,3.9668989 0 0 0 -0.114205,0.903304 3.9668989,3.9668989 0 0 0 3.966683,3.966683 3.9668989,3.9668989 0 0 0 3.966683,-3.966683 3.9668989,3.9668989 0 0 0 -0.02222,-0.415479 3.9668989,3.9668989 0 0 1 -3.858163,3.088701 3.9668989,3.9668989 0 0 1 -3.938778,-3.576526 z" />
        </g>
      </g>
    </g>
    <g
       id="g50"
       transform="translate(4.9919386,-2.530617)">
      <g
         id="g43"
         transform="translate(4.0855743,12.134765)">
        <g
           id="g41"
           transform="translate(-6.91502,-0.0646777)">
          <circle
             style="fill:#ff82a0;stroke:none;stroke-width:0;stroke-linecap:round;paint-order:stroke markers fill"
             id="circle40"
             cx="22.939024"
             cy="27.682053"
             r="3.9668989" />
          <path
             id="path40"
             style="fill:#d16363;stroke:#d16363;stroke-width:0;stroke-linecap:round;paint-order:stroke markers fill"
             d="m 19.086557,26.865027 a 3.9668989,3.9668989 0 0 0 -0.114205,0.903304 3.9668989,3.9668989 0 0 0 3.966683,3.966683 3.9668989,3.9668989 0 0 0 3.966683,-3.966683 3.9668989,3.9668989 0 0 0 -0.02222,-0.415479 3.9668989,3.9668989 0 0 1 -3.858163,3.088701 3.9668989,3.9668989 0 0 1 -3.938778,-3.576526 z" />
        </g>
        <g
           id="g42">
          <circle
             style="fill:#ff82a0;stroke:none;stroke-width:0;stroke-linecap:round;paint-order:stroke markers fill"
             id="circle41"
             cx="22.939024"
             cy="27.682053"
             r="3.9668989" />
          <path
             id="path41"
             style="fill:#d16363;stroke:#d16363;stroke-width:0;stroke-linecap:round;paint-order:stroke markers fill"
             d="m 19.086557,26.865027 a 3.9668989,3.9668989 0 0 0 -0.114205,0.903304 3.9668989,3.9668989 0 0 0 3.966683,3.966683 3.9668989,3.9668989 0 0 0 3.966683,-3.966683 3.9668989,3.9668989 0 0 0 -0.02222,-0.415479 3.9668989,3.9668989 0 0 1 -3.858163,3.088701 3.9668989,3.9668989 0 0 1 -3.938778,-3.576526 z" />
        </g>
      </g>
      <g
         id="g46"
         transform="translate(10.983792,12.134765)">
        <g
           id="g44"
           transform="translate(-6.91502,-0.0646777)">
          <circle
             style="fill:#ff82a0;stroke:none;stroke-width:0;stroke-linecap:round;paint-order:stroke markers fill"
             id="circle43"
             cx="22.939024"
             cy="27.682053"
             r="3.9668989" />
          <path
             id="path43"
             style="fill:#d16363;stroke:#d16363;stroke-width:0;stroke-linecap:round;paint-order:stroke markers fill"
             d="m 19.086557,26.865027 a 3.9668989,3.9668989 0 0 0 -0.114205,0.903304 3.9668989,3.9668989 0 0 0 3.966683,3.966683 3.9668989,3.9668989 0 0 0 3.966683,-3.966683 3.9668989,3.9668989 0 0 0 -0.02222,-0.415479 3.9668989,3.9668989 0 0 1 -3.858163,3.088701 3.9668989,3.9668989 0 0 1 -3.938778,-3.576526 z" />
        </g>
        <g
           id="g45">
          <circle
             style="fill:#ff82a0;stroke:none;stroke-width:0;stroke-linecap:round;paint-order:stroke markers fill"
             id="circle44"
             cx="22.939024"
             cy="27.682053"
             r="3.9668989" />
          <path
             id="path44"
             style="fill:#d16363;stroke:#d16363;stroke-width:0;stroke-linecap:round;paint-order:stroke markers fill"
             d="m 19.086557,26.865027 a 3.9668989,3.9668989 0 0 0 -0.114205,0.903304 3.9668989,3.9668989 0 0 0 3.966683,3.966683 3.9668989,3.9668989 0 0 0 3.966683,-3.966683 3.9668989,3.9668989 0 0 0 -0.02222,-0.415479 3.9668989,3.9668989 0 0 1 -3.858163,3.088701 3.9668989,3.9668989 0 0 1 -3.938778,-3.576526 z" />
        </g>
      </g>
      <g
         id="g49"
         transform="translate(17.875854,12.134765)">
        <g
           id="g47"
           transform="translate(-6.91502,-0.0646777)">
          <circle
             style="fill:#ff82a0;stroke:none;stroke-width:0;stroke-linecap:round;paint-order:stroke markers fill"
             id="circle46"
             cx="22.939024"
             cy="27.682053"
             r="3.9668989" />
          <path
             id="path46"
             style="fill:#d16363;stroke:#d16363;stroke-width:0;stroke-linecap:round;paint-order:stroke markers fill"
             d="m 19.086557,26.865027 a 3.9668989,3.9668989 0 0 0 -0.114205,0.903304 3.9668989,3.9668989 0 0 0 3.966683,3.966683 3.9668989,3.9668989 0 0 0 3.966683,-3.966683 3.9668989,3.9668989 0 0 0 -0.02222,-0.415479 3.9668989,3.9668989 0 0 1 -3.858163,3.088701 3.9668989,3.9668989 0 0 1 -3.938778,-3.576526 z" />
        </g>
        <g
           id="g48">
          <circle
             style="fill:#ff82a0;stroke:none;stroke-width:0;stroke-linecap:round;paint-order:stroke markers fill"
             id="circle47"
             cx="22.939024"
             cy="27.682053"
             r="3.9668989" />
          <path
             id="path47"
             style="fill:#d16363;stroke:#d16363;stroke-width:0;stroke-linecap:round;paint-order:stroke markers fill"
             d="m 19.086557,26.865027 a 3.9668989,3.9668989 0 0 0 -0.114205,0.903304 3.9668989,3.9668989 0 0 0 3.966683,3.966683 3.9668989,3.9668989 0 0 0 3.966683,-3.966683 3.9668989,3.9668989 0 0 0 -0.02222,-0.415479 3.9668989,3.9668989 0 0 1 -3.858163,3.088701 3.9668989,3.9668989 0 0 1 -3.938778,-3.576526 z" />
        </g>
      </g>
    </g>
    <g
       id="g39"
       transform="translate(2.8752718,-6.67717)">
      <g
         id="g32"
         transform="translate(4.0855743,12.134765)">
        <g
           id="g30"
           transform="translate(-6.91502,-0.0646777)">
          <circle
             style="fill:#ff82a0;stroke:none;stroke-width:0;stroke-linecap:round;paint-order:stroke markers fill"
             id="circle30"
             cx="22.939024"
             cy="27.682053"
             r="3.9668989" />
          <path
             id="path30"
             style="fill:#d16363;stroke:#d16363;stroke-width:0;stroke-linecap:round;paint-order:stroke markers fill"
             d="m 19.086557,26.865027 a 3.9668989,3.9668989 0 0 0 -0.114205,0.903304 3.9668989,3.9668989 0 0 0 3.966683,3.966683 3.9668989,3.9668989 0 0 0 3.966683,-3.966683 3.9668989,3.9668989 0 0 0 -0.02222,-0.415479 3.9668989,3.9668989 0 0 1 -3.858163,3.088701 3.9668989,3.9668989 0 0 1 -3.938778,-3.576526 z" />
        </g>
        <g
           id="g31">
          <circle
             style="fill:#ff82a0;stroke:none;stroke-width:0;stroke-linecap:round;paint-order:stroke markers fill"
             id="circle31"
             cx="22.939024"
             cy="27.682053"
             r="3.9668989" />
          <path
             id="path31"
             style="fill:#d16363;stroke:#d16363;stroke-width:0;stroke-linecap:round;paint-order:stroke markers fill"
             d="m 19.086557,26.865027 a 3.9668989,3.9668989 0 0 0 -0.114205,0.903304 3.9668989,3.9668989 0 0 0 3.966683,3.966683 3.9668989,3.9668989 0 0 0 3.966683,-3.966683 3.9668989,3.9668989 0 0 0 -0.02222,-0.415479 3.9668989,3.9668989 0 0 1 -3.858163,3.088701 3.9668989,3.9668989 0 0 1 -3.938778,-3.576526 z" />
        </g>
      </g>
      <g
         id="g35"
         transform="translate(10.983792,12.134765)">
        <g
           id="g33"
           transform="translate(-6.91502,-0.0646777)">
          <circle
             style="fill:#ff82a0;stroke:none;stroke-width:0;stroke-linecap:round;paint-order:stroke markers fill"
             id="circle32"
             cx="22.939024"
             cy="27.682053"
             r="3.9668989" />
          <path
             id="path32"
             style="fill:#d16363;stroke:#d16363;stroke-width:0;stroke-linecap:round;paint-order:stroke markers fill"
             d="m 19.086557,26.865027 a 3.9668989,3.9668989 0 0 0 -0.114205,0.903304 3.9668989,3.9668989 0 0 0 3.966683,3.966683 3.9668989,3.9668989 0 0 0 3.966683,-3.966683 3.9668989,3.9668989 0 0 0 -0.02222,-0.415479 3.9668989,3.9668989 0 0 1 -3.858163,3.088701 3.9668989,3.9668989 0 0 1 -3.938778,-3.576526 z" />
        </g>
        <g
           id="g34">
          <circle
             style="fill:#ff82a0;stroke:none;stroke-width:0;stroke-linecap:round;paint-order:stroke markers fill"
             id="circle33"
             cx="22.939024"
             cy="27.682053"
             r="3.9668989" />
          <path
             id="path33"
             style="fill:#d16363;stroke:#d16363;stroke-width:0;stroke-linecap:round;paint-order:stroke markers fill"
             d="m 19.086557,26.865027 a 3.9668989,3.9668989 0 0 0 -0.114205,0.903304 3.9668989,3.9668989 0 0 0 3.966683,3.966683 3.9668989,3.9668989 0 0 0 3.966683,-3.966683 3.9668989,3.9668989 0 0 0 -0.02222,-0.415479 3.9668989,3.9668989 0 0 1 -3.858163,3.088701 3.9668989,3.9668989 0 0 1 -3.938778,-3.576526 z" />
        </g>
      </g>
      <g
         id="g38"
         transform="translate(17.875854,12.134765)">
        <g
           id="g36"
           transform="translate(-6.91502,-0.0646777)">
          <circle
             style="fill:#ff82a0;stroke:none;stroke-width:0;stroke-linecap:round;paint-order:stroke markers fill"
             id="circle35"
             cx="22.939024"
             cy="27.682053"
             r="3.9668989" />
          <path
             id="path35"
             style="fill:#d16363;stroke:#d16363;stroke-width:0;stroke-linecap:round;paint-order:stroke markers fill"
             d="m 19.086557,26.865027 a 3.9668989,3.9668989 0 0 0 -0.114205,0.903304 3.9668989,3.9668989 0 0 0 3.966683,3.966683 3.9668989,3.9668989 0 0 0 3.966683,-3.966683 3.9668989,3.9668989 0 0 0 -0.02222,-0.415479 3.9668989,3.9668989 0 0 1 -3.858163,3.088701 3.9668989,3.9668989 0 0 1 -3.938778,-3.576526 z" />
        </g>
        <g
           id="g37">
          <circle
             style="fill:#ff82a0;stroke:none;stroke-width:0;stroke-linecap:round;paint-order:stroke markers fill"
             id="circle36"
             cx="22.939024"
             cy="27.682053"
             r="3.9668989" />
          <path
             id="path36"
             style="fill:#d16363;stroke:#d16363;stroke-width:0;stroke-linecap:round;paint-order:stroke markers fill"
             d="m 19.086557,26.865027 a 3.9668989,3.9668989 0 0 0 -0.114205,0.903304 3.9668989,3.9668989 0 0 0 3.966683,3.966683 3.9668989,3.9668989 0 0 0 3.966683,-3.966683 3.9668989,3.9668989 0 0 0 -0.02222,-0.415479 3.9668989,3.9668989 0 0 1 -3.858163,3.088701 3.9668989,3.9668989 0 0 1 -3.938778,-3.576526 z" />
          <path
             id="path64"
             style="fill:#d16363;stroke:#d16363;stroke-width:0;stroke-linecap:round;paint-order:stroke markers fill"
             d="m 19.086557,26.865027 a 3.9668989,3.9668989 0 0 0 -0.114205,0.903304 3.9668989,3.9668989 0 0 0 3.966683,3.966683 3.9668989,3.9668989 0 0 0 3.966683,-3.966683 3.9668989,3.9668989 0 0 0 -0.02222,-0.415479 3.9668989,3.9668989 0 0 1 -3.858163,3.088701 3.9668989,3.9668989 0 0 1 -3.938778,-3.576526 z" />
          <circle
             style="fill:#ff82a0;stroke:none;stroke-width:0;stroke-linecap:round;paint-order:stroke markers fill"
             id="circle64"
             cx="22.939024"
             cy="27.682053"
             r="3.9668989" />
          <path
             id="path65"
             style="fill:#d16363;stroke:#d16363;stroke-width:0;stroke-linecap:round;paint-order:stroke markers fill"
             d="m 19.086557,26.865027 a 3.9668989,3.9668989 0 0 0 -0.114205,0.903304 3.9668989,3.9668989 0 0 0 3.966683,3.966683 3.9668989,3.9668989 0 0 0 3.966683,-3.966683 3.9668989,3.9668989 0 0 0 -0.02222,-0.415479 3.9668989,3.9668989 0 0 1 -3.858163,3.088701 3.9668989,3.9668989 0 0 1 -3.938778,-3.576526 z" />
        </g>
      </g>
    </g>
    <g
       id="g40"
       transform="translate(4.0409037)">
      <g
         id="g9">
        <g
           id="g7"
           transform="translate(-6.91502,-0.0646777)">
          <circle
             style="fill:#ff82a0;stroke:none;stroke-width:0;stroke-linecap:round;paint-order:stroke markers fill"
             id="circle6"
             cx="22.939024"
             cy="27.682053"
             r="3.9668989" />
          <path
             id="path6"
             style="fill:#d16363;stroke:#d16363;stroke-width:0;stroke-linecap:round;paint-order:stroke markers fill"
             d="m 19.086557,26.865027 a 3.9668989,3.9668989 0 0 0 -0.114205,0.903304 3.9668989,3.9668989 0 0 0 3.966683,3.966683 3.9668989,3.9668989 0 0 0 3.966683,-3.966683 3.9668989,3.9668989 0 0 0 -0.02222,-0.415479 3.9668989,3.9668989 0 0 1 -3.858163,3.088701 3.9668989,3.9668989 0 0 1 -3.938778,-3.576526 z" />
        </g>
        <g
           id="g8">
          <circle
             style="fill:#ff82a0;stroke:none;stroke-width:0;stroke-linecap:round;paint-order:stroke markers fill"
             id="circle7"
             cx="22.939024"
             cy="27.682053"
             r="3.9668989" />
          <path
             id="path7"
             style="fill:#d16363;stroke:#d16363;stroke-width:0;stroke-linecap:round;paint-order:stroke markers fill"
             d="m 19.086557,26.865027 a 3.9668989,3.9668989 0 0 0 -0.114205,0.903304 3.9668989,3.9668989 0 0 0 3.966683,3.966683 3.9668989,3.9668989 0 0 0 3.966683,-3.966683 3.9668989,3.9668989 0 0 0 -0.02222,-0.415479 3.9668989,3.9668989 0 0 1 -3.858163,3.088701 3.9668989,3.9668989 0 0 1 -3.938778,-3.576526 z" />
        </g>
      </g>
      <g
         id="g18"
         transform="translate(13.79028)">
        <g
           id="g16"
           transform="translate(-6.91502,-0.0646777)">
          <circle
             style="fill:#ff82a0;stroke:none;stroke-width:0;stroke-linecap:round;paint-order:stroke markers fill"
             id="circle15"
             cx="22.939024"
             cy="27.682053"
             r="3.9668989" />
          <path
             id="path15"
             style="fill:#d16363;stroke:#d16363;stroke-width:0;stroke-linecap:round;paint-order:stroke markers fill"
             d="m 19.086557,26.865027 a 3.9668989,3.9668989 0 0 0 -0.114205,0.903304 3.9668989,3.9668989 0 0 0 3.966683,3.966683 3.9668989,3.9668989 0 0 0 3.966683,-3.966683 3.9668989,3.9668989 0 0 0 -0.02222,-0.415479 3.9668989,3.9668989 0 0 1 -3.858163,3.088701 3.9668989,3.9668989 0 0 1 -3.938778,-3.576526 z" />
        </g>
        <g
           id="g17">
          <circle
             style="fill:#ff82a0;stroke:none;stroke-width:0;stroke-linecap:round;paint-order:stroke markers fill"
             id="circle16"
             cx="22.939024"
             cy="27.682053"
             r="3.9668989" />
          <path
             id="path16"
             style="fill:#d16363;stroke:#d16363;stroke-width:0;stroke-linecap:round;paint-order:stroke markers fill"
             d="m 19.086557,26.865027 a 3.9668989,3.9668989 0 0 0 -0.114205,0.903304 3.9668989,3.9668989 0 0 0 3.966683,3.966683 3.9668989,3.9668989 0 0 0 3.966683,-3.966683 3.9668989,3.9668989 0 0 0 -0.02222,-0.415479 3.9668989,3.9668989 0 0 1 -3.858163,3.088701 3.9668989,3.9668989 0 0 1 -3.938778,-3.576526 z" />
        </g>
      </g>
      <g
         id="g21"
         transform="translate(20.688498)">
        <g
           id="g19"
           transform="translate(-6.91502,-0.0646777)">
          <circle
             style="fill:#ff82a0;stroke:none;stroke-width:0;stroke-linecap:round;paint-order:stroke markers fill"
             id="circle18"
             cx="22.939024"
             cy="27.682053"
             r="3.9668989" />
          <path
             id="path18"
             style="fill:#d16363;stroke:#d16363;stroke-width:0;stroke-linecap:round;paint-order:stroke markers fill"
             d="m 19.086557,26.865027 a 3.9668989,3.9668989 0 0 0 -0.114205,0.903304 3.9668989,3.9668989 0 0 0 3.966683,3.966683 3.9668989,3.9668989 0 0 0 3.966683,-3.966683 3.9668989,3.9668989 0 0 0 -0.02222,-0.415479 3.9668989,3.9668989 0 0 1 -3.858163,3.088701 3.9668989,3.9668989 0 0 1 -3.938778,-3.576526 z" />
        </g>
        <g
           id="g20">
          <circle
             style="fill:#ff82a0;stroke:none;stroke-width:0;stroke-linecap:round;paint-order:stroke markers fill"
             id="circle19"
             cx="22.939024"
             cy="27.682053"
             r="3.9668989" />
          <path
             id="path19"
             style="fill:#d16363;stroke:#d16363;stroke-width:0;stroke-linecap:round;paint-order:stroke markers fill"
             d="m 19.086557,26.865027 a 3.9668989,3.9668989 0 0 0 -0.114205,0.903304 3.9668989,3.9668989 0 0 0 3.966683,3.966683 3.9668989,3.9668989 0 0 0 3.966683,-3.966683 3.9668989,3.9668989 0 0 0 -0.02222,-0.415479 3.9668989,3.9668989 0 0 1 -3.858163,3.088701 3.9668989,3.9668989 0 0 1 -3.938778,-3.576526 z" />
        </g>
      </g>
    </g>
  </g>
</svg>
