<?xml version="1.0" encoding="UTF-8" standalone="no"?>
<!-- Created with Inkscape (http://www.inkscape.org/) -->

<svg
   width="375.47696"
   height="1375.5291"
   viewBox="0 0 99.344941 363.94207"
   version="1.1"
   id="svg1"
   inkscape:version="1.3 (0e150ed6c4, 2023-07-21)"
   sodipodi:docname="zucchini_verticle.svg"
   xmlns:inkscape="http://www.inkscape.org/namespaces/inkscape"
   xmlns:sodipodi="http://sodipodi.sourceforge.net/DTD/sodipodi-0.dtd"
   xmlns="http://www.w3.org/2000/svg"
   xmlns:svg="http://www.w3.org/2000/svg">
  <sodipodi:namedview
     id="namedview1"
     pagecolor="#ffffff"
     bordercolor="#666666"
     borderopacity="1.0"
     inkscape:showpageshadow="2"
     inkscape:pageopacity="0.0"
     inkscape:pagecheckerboard="0"
     inkscape:deskcolor="#d1d1d1"
     inkscape:document-units="mm"
     inkscape:zoom="1.0847363"
     inkscape:cx="79.281942"
     inkscape:cy="601.52868"
     inkscape:window-width="1920"
     inkscape:window-height="1057"
     inkscape:window-x="-8"
     inkscape:window-y="-8"
     inkscape:window-maximized="1"
     inkscape:current-layer="layer1" />
  <defs
     id="defs1" />
  <g
     inkscape:label="Layer 1"
     inkscape:groupmode="layer"
     id="layer1"
     style="display:inline"
     transform="matrix(3,0,0,3,-144.52491,80.371029)">
    <g
       id="g9"
       transform="rotate(90,119.31695,-21.798366)"
       style="display:inline">
      <rect
         style="display:inline;fill:#439d40;stroke:#85c448;stroke-width:0.042788;stroke-linecap:round;stroke-dasharray:none;paint-order:stroke markers fill"
         id="rect5"
         width="17.944921"
         height="11.909115"
         x="114.34637"
         y="26.853775"
         ry="3.2777381" />
      <path
         id="rect9"
         style="display:inline;fill:#29694e;stroke:#29694e;stroke-width:0.042788;stroke-linecap:round;stroke-dasharray:none;paint-order:stroke markers fill"
         d="m 114.34651,33.070333 v 2.41484 c 0,1.815865 1.46197,3.277836 3.27783,3.277836 h 11.38897 c 1.81587,0 3.27784,-1.461971 3.27784,-3.277836 v -2.41484 c 0,1.815865 -1.46197,3.277836 -3.27784,3.277836 h -11.38897 c -1.81586,0 -3.27783,-1.461971 -3.27783,-3.277836 z" />
    </g>
    <rect
       style="display:inline;fill:#29694e;stroke-width:0;stroke-linecap:round;paint-order:stroke markers fill"
       id="rect1"
       width="129.01045"
       height="33.114983"
       x="3.2281072"
       y="17.309175"
       ry="16.557491"
       transform="matrix(0,0.89313075,1,0,30.865795,-23.627179)" />
    <path
       id="rect3"
       style="display:inline;fill:#85c448;stroke:#85c448;stroke-width:0.1;stroke-linecap:round;stroke-dasharray:none;paint-order:stroke markers fill"
       d="m 4.39198,27.775566 c -0.7429122,1.885381 -1.1637533,3.935622 -1.1637533,6.091101 0,0.212043 0.0237,0.417805 0.031523,0.627868 H 132.20692 c 0.008,-0.210063 0.0315,-0.415825 0.0315,-0.627868 0,-2.155479 -0.42084,-4.20572 -1.16375,-6.091101 z"
       transform="matrix(0,0.89313075,1,0,30.865795,-23.627177)" />
    <path
       id="rect1-9"
       style="display:inline;fill:#85c448;stroke-width:0;stroke-linecap:round;paint-order:stroke markers fill"
       d="m 10.135298,47.319438 c 2.71536,1.947404 6.039029,3.10472 9.650057,3.10472 h 95.895955 c 3.61103,0 6.9347,-1.157316 9.65006,-3.10472 z"
       transform="matrix(0,0.89313075,1,0,30.865795,-23.627177)" />
  </g>
</svg>
