<?xml version="1.0" encoding="UTF-8" standalone="no"?>
<!-- Created with Inkscape (http://www.inkscape.org/) -->

<svg
   width="563.21545"
   height="2063.3379"
   viewBox="0 0 149.01742 545.92483"
   version="1.1"
   id="svg1"
   inkscape:version="1.3 (0e150ed6c4, 2023-07-21)"
   sodipodi:docname="zucchini.svg"
   xmlns:inkscape="http://www.inkscape.org/namespaces/inkscape"
   xmlns:sodipodi="http://sodipodi.sourceforge.net/DTD/sodipodi-0.dtd"
   xmlns="http://www.w3.org/2000/svg"
   xmlns:svg="http://www.w3.org/2000/svg">
  <sodipodi:namedview
     id="namedview1"
     pagecolor="#ffffff"
     bordercolor="#666666"
     borderopacity="1.0"
     inkscape:showpageshadow="2"
     inkscape:pageopacity="0.0"
     inkscape:pagecheckerboard="0"
     inkscape:deskcolor="#d1d1d1"
     inkscape:document-units="mm"
     inkscape:zoom="0.27118408"
     inkscape:cx="-755.94409"
     inkscape:cy="790.97565"
     inkscape:window-width="1920"
     inkscape:window-height="1057"
     inkscape:window-x="-8"
     inkscape:window-y="-8"
     inkscape:window-maximized="1"
     inkscape:current-layer="layer1" />
  <defs
     id="defs1" />
  <g
     inkscape:label="Layer 1"
     inkscape:groupmode="layer"
     id="layer1"
     style="display:inline"
     transform="matrix(3,0,0,3,-119.68867,171.35655)">
    <g
       id="g9"
       transform="matrix(0,1.5,-1.5,0,113.91165,-228.60631)"
       style="display:inline">
      <rect
         style="display:inline;fill:#439d40;stroke:#85c448;stroke-width:0.042788;stroke-linecap:round;stroke-dasharray:none;paint-order:stroke markers fill"
         id="rect5"
         width="17.944921"
         height="11.909115"
         x="114.34637"
         y="26.853775"
         ry="3.2777381" />
      <path
         id="rect9"
         style="display:inline;fill:#29694e;stroke:#29694e;stroke-width:0.042788;stroke-linecap:round;stroke-dasharray:none;paint-order:stroke markers fill"
         d="m 114.34651,33.070333 v 2.41484 c 0,1.815865 1.46197,3.277836 3.27783,3.277836 h 11.38897 c 1.81587,0 3.27784,-1.461971 3.27784,-3.277836 v -2.41484 c 0,1.815865 -1.46197,3.277836 -3.27784,3.277836 h -11.38897 c -1.81586,0 -3.27783,-1.461971 -3.27783,-3.277836 z" />
    </g>
    <rect
       style="display:inline;fill:#29694e;stroke-width:0;stroke-linecap:round;paint-order:stroke markers fill"
       id="rect1"
       width="172.83481"
       height="49.672474"
       x="-48.049419"
       y="39.896225"
       ry="24.836237"
       transform="matrix(0,1,1,0,0,0)" />
    <path
       id="rect3"
       style="display:inline;fill:#85c448;stroke:#85c448;stroke-width:0.141758;stroke-linecap:round;stroke-dasharray:none;paint-order:stroke markers fill"
       d="m 55.595811,-46.490181 c 2.828071,-0.995276 5.903433,-1.559076 9.136651,-1.559076 0.318065,0 0.626708,0.03175 0.941802,0.04223 V 124.743 c -0.315094,0.0107 -0.623737,0.0422 -0.941802,0.0422 -3.233218,0 -6.30858,-0.5638 -9.136651,-1.55907 z" />
    <path
       id="rect1-9"
       style="display:inline;fill:#85c448;stroke-width:0;stroke-linecap:round;paint-order:stroke markers fill"
       d="m 84.911619,-38.79588 c 2.921106,3.637757 4.65708,8.090464 4.65708,12.928144 V 102.6037 c 0,4.83769 -1.735974,9.29039 -4.65708,12.92815 z" />
  </g>
</svg>
