<?xml version="1.0" encoding="UTF-8" standalone="no"?>
<!-- Created with Inkscape (http://www.inkscape.org/) -->

<svg
   width="1626.8456"
   height="1748.8049"
   viewBox="0 0 430.43622 462.70464"
   version="1.1"
   id="svg1"
   inkscape:version="1.3 (0e150ed6c4, 2023-07-21)"
   sodipodi:docname="steak_raw.svg"
   xmlns:inkscape="http://www.inkscape.org/namespaces/inkscape"
   xmlns:sodipodi="http://sodipodi.sourceforge.net/DTD/sodipodi-0.dtd"
   xmlns="http://www.w3.org/2000/svg"
   xmlns:svg="http://www.w3.org/2000/svg">
  <sodipodi:namedview
     id="namedview1"
     pagecolor="#ffffff"
     bordercolor="#666666"
     borderopacity="1.0"
     inkscape:showpageshadow="2"
     inkscape:pageopacity="0.0"
     inkscape:pagecheckerboard="0"
     inkscape:deskcolor="#d1d1d1"
     inkscape:document-units="mm"
     inkscape:zoom="0.27118408"
     inkscape:cx="744.88148"
     inkscape:cy="330.03412"
     inkscape:window-width="1038"
     inkscape:window-height="1041"
     inkscape:window-x="861"
     inkscape:window-y="64"
     inkscape:window-maximized="0"
     inkscape:current-layer="layer1" />
  <defs
     id="defs1" />
  <g
     inkscape:label="Layer 1"
     inkscape:groupmode="layer"
     id="layer1"
     transform="matrix(7,0,0,7,-24.370119,-17.053043)">
    <path
       style="fill:#d16363;stroke:none;stroke-width:0.396874px;stroke-linecap:butt;stroke-linejoin:miter;stroke-opacity:1"
       d="M 5.3110042,6.1875098 C 4.0038742,20.943929 11.267084,34.936957 21.609344,37.43155 c 2.102549,1.224939 2.760666,22.00702 3.858263,24.275691 3.950934,8.166354 4.23195,0.933622 5.200075,1.266634 L 30.942086,8.7746168 Z"
       id="path3"
       sodipodi:nodetypes="ccsccc" />
    <path
       style="display:inline;fill:#fad5af;stroke:none;stroke-width:0.410427px;stroke-linecap:butt;stroke-linejoin:miter;stroke-opacity:1"
       d="m 58.339756,26.014472 c 0,0 -1.163682,12.461981 -18.92441,36.950046 C 32.254867,72.837214 34.94258,49.047817 36.699352,41.414638 39.30005,30.11461 43.855529,29.984627 43.855529,29.984627 Z"
       id="path5"
       sodipodi:nodetypes="csscc" />
    <path
       style="fill:#d16363;stroke:none;stroke-width:0.396874px;stroke-linecap:butt;stroke-linejoin:miter;stroke-opacity:1"
       d="m 64.951142,14.304371 c 0.70878,18.607428 -16.583505,18.299243 -18.345667,23.768052 -1.634777,5.073471 -1.743137,19.168646 -4.162896,22.774941 -4.338302,6.465603 -10.860405,5.453259 -11.009862,5.3708 L 31.752856,7.1739248 52.98958,4.5603368 c 4.376644,2.0122335 11.579974,-4.94482352 11.961562,9.7440342 z"
       id="path4"
       sodipodi:nodetypes="csscccc" />
    <g
       id="g3"
       inkscape:label="bone"
       transform="matrix(1.5,0,0,1.5,-17.113445,-17.74324)">
      <path
         id="rect1"
         style="fill:#feffe5;stroke:none;stroke-width:2.73354;stroke-linecap:round;paint-order:stroke markers fill"
         d="m 15.62557,13.452926 c -1.050208,0 -1.895643,0.857724 -1.895643,1.923396 v 1.413351 c 0,1.065672 0.845435,1.923913 1.895643,1.923913 h 33.411581 c 1.050208,0 1.895643,-0.858241 1.895643,-1.923913 v -1.413351 c 0,-1.065672 -0.845435,-1.923396 -1.895643,-1.923396 -4.762632,0.717256 -14.924115,-1.285507 -14.287604,2.151806 0,0.253178 -0.785613,0.45682 -1.761693,0.45682 h -1.294527 c -0.97608,0 -1.762166,-0.203642 -1.762166,-0.45682 0.932842,-3.277068 -9.412269,-1.490566 -14.305591,-2.151806 z"
         sodipodi:nodetypes="cssssssccsscc" />
      <rect
         style="fill:#feffe5;stroke:none;stroke-width:2.68737;stroke-linecap:round;paint-order:stroke markers fill"
         id="rect2"
         width="40.617596"
         height="4.6567945"
         x="16.902437"
         y="-34.5378"
         ry="1.7028574"
         rx="2.0696852"
         transform="rotate(90)" />
    </g>
  </g>
</svg>
