<?xml version="1.0" encoding="UTF-8" standalone="no"?>
<!-- Created with Inkscape (http://www.inkscape.org/) -->

<svg
   width="1135.0577"
   height="1139.9927"
   viewBox="0 0 300.31735 301.62306"
   version="1.1"
   id="svg1"
   inkscape:version="1.3 (0e150ed6c4, 2023-07-21)"
   sodipodi:docname="lettuce_half.svg"
   xmlns:inkscape="http://www.inkscape.org/namespaces/inkscape"
   xmlns:sodipodi="http://sodipodi.sourceforge.net/DTD/sodipodi-0.dtd"
   xmlns="http://www.w3.org/2000/svg"
   xmlns:svg="http://www.w3.org/2000/svg">
  <sodipodi:namedview
     id="namedview1"
     pagecolor="#ffffff"
     bordercolor="#666666"
     borderopacity="1.0"
     inkscape:showpageshadow="2"
     inkscape:pageopacity="0.0"
     inkscape:pagecheckerboard="0"
     inkscape:deskcolor="#d1d1d1"
     inkscape:document-units="mm"
     inkscape:zoom="0.21025203"
     inkscape:cx="480.37587"
     inkscape:cy="760.99147"
     inkscape:window-width="958"
     inkscape:window-height="1048"
     inkscape:window-x="956"
     inkscape:window-y="10"
     inkscape:window-maximized="0"
     inkscape:current-layer="layer1" />
  <defs
     id="defs1">
    <inkscape:path-effect
       effect="spiro"
       id="path-effect3"
       is_visible="true"
       lpeversion="1" />
    <inkscape:path-effect
       effect="spiro"
       id="path-effect2"
       is_visible="true"
       lpeversion="1" />
  </defs>
  <g
     inkscape:label="Layer 1"
     inkscape:groupmode="layer"
     id="layer1"
     transform="matrix(6,0,0,6,-53.041316,-55.453499)">
    <circle
       style="fill:#c8d6ac;stroke-width:12.7;stroke-linecap:round;stroke-linejoin:round;paint-order:stroke fill markers"
       id="path1"
       cx="33.866665"
       cy="33.866665"
       r="23.580509" />
    <rect
       style="fill:#d68552;stroke-width:10.6147;stroke-linecap:round;stroke-linejoin:round;paint-order:stroke fill markers"
       id="rect3"
       width="10.010593"
       height="3.681246"
       x="28.86137"
       y="55.831516"
       rx="1.1940498"
       ry="1.1137993" />
    <path
       id="path3"
       style="fill:#85c448;stroke-width:13.4788;stroke-linecap:round;stroke-linejoin:round;paint-order:stroke fill markers"
       d="M 33.866667,9.2422499 A 25.026486,25.026486 0 0 0 8.8402194,34.268697 25.026486,25.026486 0 0 0 10.324332,42.581596 c 0.09078,0.0081 0.180916,0.02137 0.272033,0.02358 0.180046,0.0044 0.360554,-0.0023 0.539677,-0.02085 0.179125,-0.01851 0.357125,-0.04865 0.532548,-0.08939 0.175423,-0.04074 0.348247,-0.09232 0.517191,-0.154664 0.168944,-0.06234 0.33392,-0.135551 0.493607,-0.218833 0.118269,-0.06168 0.233203,-0.128449 0.344977,-0.199636 0.111774,-0.07118 0.220601,-0.146815 0.326878,-0.225963 0.212554,-0.158295 0.414985,-0.330851 0.611525,-0.511706 0.196541,-0.180856 0.386832,-0.370025 0.575326,-0.561067 0.188496,-0.191041 0.375392,-0.383732 0.56381,-0.572585 0.188419,-0.188853 0.380536,-0.374864 0.580264,-0.551744 0.199727,-0.176878 0.406794,-0.344548 0.625784,-0.496897 0.109494,-0.07617 0.222391,-0.148768 0.337847,-0.216091 0.115456,-0.06732 0.233355,-0.129658 0.3543,-0.185925 0.120946,-0.05627 0.244791,-0.10617 0.370754,-0.149179 0.125964,-0.04302 0.253956,-0.07886 0.384466,-0.106401 0.189265,-0.03995 0.381289,-0.06214 0.573681,-0.06855 0.192393,-0.0064 0.385378,0.0027 0.577521,0.02523 0.192142,0.02256 0.38352,0.05832 0.572036,0.105304 0.188517,0.04698 0.374068,0.105358 0.555583,0.172214 0.181515,0.06685 0.359252,0.142019 0.534193,0.223769 0.17494,0.08175 0.347301,0.170136 0.517191,0.262709 0.33978,0.185145 0.671116,0.387777 0.999829,0.59178 0.328713,0.204004 0.656789,0.410266 0.992151,0.603298 0.167682,0.09652 0.337473,0.18966 0.509513,0.277517 0.17204,0.08786 0.346672,0.170453 0.524869,0.245707 0.178198,0.07526 0.360337,0.143325 0.545711,0.201283 0.185373,0.05796 0.373715,0.106089 0.563809,0.142049 0.190095,0.03596 0.381872,0.05928 0.57423,0.06855 0.192358,0.0092 0.385355,0.004 0.577521,-0.0181 0.126022,-0.01451 0.25035,-0.03557 0.372947,-0.06307 0.122599,-0.02751 0.243581,-0.06114 0.363076,-0.09982 0.238991,-0.07734 0.471861,-0.175311 0.700374,-0.286292 0.228514,-0.11098 0.45234,-0.235321 0.672952,-0.365269 0.220612,-0.129948 0.437921,-0.265581 0.653208,-0.399822 0.215285,-0.134241 0.434092,-0.268647 0.656498,-0.395983 0.222405,-0.127336 0.448444,-0.247701 0.679533,-0.353204 0.115544,-0.05275 0.232453,-0.101398 0.350461,-0.145889 0.118007,-0.04449 0.237473,-0.08464 0.358139,-0.119013 0.120666,-0.03438 0.242299,-0.06318 0.365818,-0.08556 0.12352,-0.02238 0.248573,-0.03809 0.375142,-0.04662 0.117175,-0.0079 0.234437,-0.0091 0.35101,-0.0044 0.116572,0.0048 0.232836,0.01536 0.348267,0.03181 0.115431,0.01645 0.230128,0.03867 0.34388,0.06581 0.113752,0.02714 0.226311,0.05914 0.337847,0.09598 0.22307,0.07369 0.441135,0.166004 0.65211,0.272581 0.210975,0.106576 0.414755,0.22767 0.609331,0.359237 0.194576,0.131565 0.381428,0.273143 0.562165,0.422308 0.180735,0.149165 0.355778,0.305872 0.526514,0.467281 0.341473,0.322818 0.66654,0.664558 0.991053,1.004218 0.287486,0.300902 0.577672,0.602377 0.874235,0.897268 0.296563,0.294891 0.599569,0.583263 0.913173,0.857232 0.156803,0.136985 0.316243,0.270315 0.4788,0.399273 0.162556,0.128959 0.32814,0.253331 0.497447,0.3724 0.169305,0.119069 0.342334,0.232725 0.519384,0.34004 0.17705,0.107316 0.358275,0.2085 0.544065,0.302198 0.185791,0.0937 0.375647,0.179691 0.569294,0.256676 0.193646,0.07699 0.390755,0.145239 0.590683,0.202928 0.199929,0.05769 0.40305,0.104593 0.607686,0.140403 0.204637,0.03581 0.410885,0.0605 0.618655,0.07185 0.20777,0.01136 0.416803,0.0091 0.624688,-0.0066 0.207885,-0.01572 0.414702,-0.045 0.618106,-0.08884 0.203404,-0.04385 0.403486,-0.101929 0.597814,-0.174957 0.194327,-0.07303 0.383154,-0.161102 0.563809,-0.264355 0.11213,-0.06409 0.219995,-0.133778 0.324684,-0.207862 0.104689,-0.07409 0.206033,-0.152435 0.303843,-0.235287 0.09781,-0.08285 0.192059,-0.170126 0.28355,-0.260515 0.09148,-0.09039 0.180268,-0.184113 0.266,-0.280808 0.171461,-0.193389 0.331946,-0.398099 0.483735,-0.609331 0.151789,-0.211232 0.295032,-0.42904 0.431633,-0.648271 0.2732,-0.438462 0.527825,-0.890043 0.797449,-1.331095 0.134813,-0.220526 0.273196,-0.438333 0.419567,-0.650465 0.14637,-0.212132 0.300504,-0.41875 0.466733,-0.616461 0.142839,-0.169891 0.29472,-0.332961 0.455216,-0.487025 0.160495,-0.154066 0.32971,-0.298868 0.50677,-0.43273 0.177061,-0.133862 0.361951,-0.25654 0.554485,-0.365818 0.192536,-0.109278 0.392542,-0.205428 0.59946,-0.285744 0.206918,-0.08031 0.42115,-0.144263 0.638947,-0.190313 0.217798,-0.04605 0.439665,-0.07404 0.661434,-0.08282 0.110885,-0.0044 0.22178,-0.0038 0.332362,0.0017 0.110584,0.0055 0.220752,0.01552 0.330169,0.03127 0.109418,0.01574 0.217844,0.0367 0.325233,0.06307 0.107388,0.02637 0.213606,0.05861 0.318102,0.09597 0.1281,0.04582 0.252968,0.09943 0.374594,0.159601 0.121625,0.06017 0.239754,0.12684 0.355397,0.198539 0.115643,0.0717 0.228794,0.148284 0.338944,0.228705 0.11015,0.08042 0.217342,0.164315 0.32249,0.250642 0.210296,0.172657 0.412282,0.355002 0.613171,0.538581 0.200887,0.18358 0.400969,0.368607 0.606588,0.546808 0.205619,0.178201 0.418379,0.350144 0.641689,0.505674 0.111656,0.07776 0.225931,0.151778 0.343332,0.219929 0.117402,0.06815 0.23795,0.130568 0.361979,0.186474 0.0573,0.02583 0.117751,0.04426 0.176601,0.06692 A 25.026486,25.026486 0 0 0 58.893114,34.268697 25.026486,25.026486 0 0 0 33.866667,9.2422499 Z" />
    <ellipse
       style="fill:#feffe5;stroke-width:12.7;stroke-linecap:round;stroke-linejoin:round;paint-order:stroke fill markers"
       id="path4"
       cx="12.223367"
       cy="47.114277"
       rx="3.1700211"
       ry="7.0630298"
       transform="rotate(-54.079871)" />
    <ellipse
       style="fill:#9da5ae;stroke-width:10.8163;stroke-linecap:round;stroke-linejoin:round;paint-order:stroke fill markers"
       id="ellipse4"
       cx="-27.381996"
       cy="46.003414"
       rx="2.6998322"
       ry="6.0154161"
       transform="rotate(-54.079871)" />
  </g>
</svg>
