<?xml version="1.0" encoding="UTF-8" standalone="no"?>
<!-- Created with Inkscape (http://www.inkscape.org/) -->

<svg
   width="932.22644"
   height="1085.5466"
   viewBox="0 0 246.65158 287.21754"
   version="1.1"
   id="svg1"
   inkscape:version="1.3 (0e150ed6c4, 2023-07-21)"
   sodipodi:docname="pbj_blueberry.svg"
   xmlns:inkscape="http://www.inkscape.org/namespaces/inkscape"
   xmlns:sodipodi="http://sodipodi.sourceforge.net/DTD/sodipodi-0.dtd"
   xmlns="http://www.w3.org/2000/svg"
   xmlns:svg="http://www.w3.org/2000/svg">
  <sodipodi:namedview
     id="namedview1"
     pagecolor="#ffffff"
     bordercolor="#666666"
     borderopacity="1.0"
     inkscape:showpageshadow="2"
     inkscape:pageopacity="0.0"
     inkscape:pagecheckerboard="0"
     inkscape:deskcolor="#d1d1d1"
     inkscape:document-units="mm"
     inkscape:zoom="0.3835122"
     inkscape:cx="398.94428"
     inkscape:cy="426.32281"
     inkscape:window-width="1920"
     inkscape:window-height="1057"
     inkscape:window-x="-8"
     inkscape:window-y="-8"
     inkscape:window-maximized="1"
     inkscape:current-layer="layer1"
     showgrid="false" />
  <defs
     id="defs1" />
  <g
     inkscape:label="Layer 1"
     inkscape:groupmode="layer"
     id="layer1"
     transform="translate(88.507242,129.10911)">
    <g
       id="g5">
      <path
         id="rect1"
         style="display:inline;fill:#feffe5;stroke:#f1934c;stroke-width:16.9333;stroke-linecap:round;stroke-linejoin:round;paint-order:stroke fill markers"
         d="m 33.866669,-83.540896 a 113.90824,60.734808 0 0 0 -113.907261,60.734279 113.90824,60.734808 0 0 0 27.074317,39.123192 V 149.64177 H 120.69961 V 16.316575 A 113.90824,60.734808 0 0 0 147.77392,-22.806617 113.90824,60.734808 0 0 0 33.866669,-83.540896 Z" />
      <path
         style="display:inline;fill:none;stroke:#fad5af;stroke-width:12.7;stroke-linecap:round;stroke-linejoin:miter;stroke-dasharray:none;stroke-opacity:1"
         d="M -35.385291,96.333917 V 133.58827"
         id="path1" />
      <path
         style="display:inline;fill:none;stroke:#fad5af;stroke-width:12.7;stroke-linecap:round;stroke-linejoin:miter;stroke-dasharray:none;stroke-opacity:1"
         d="M 1.869062,133.58827 H -35.385291"
         id="path2" />
    </g>
    <path
       id="path3"
       style="display:inline;fill:#2749d0;fill-opacity:1;stroke:none;stroke-width:15.5028;stroke-linecap:round;stroke-linejoin:round;paint-order:stroke fill markers"
       d="m 33.866673,-73.691787 a 104.28578,55.604207 0 0 0 -104.284893,55.60372 104.28578,55.604207 0 0 0 24.787202,35.81825 V 139.79266 H 113.36437 V 17.730183 a 104.28578,55.604207 0 0 0 24.78719,-35.81825 104.28578,55.604207 0 0 0 -104.284887,-55.60372 z" />
    <g
       id="g7"
       transform="rotate(5.944104,384.27404,-18.451802)">
      <path
         id="path5"
         style="display:inline;fill:#feffe5;stroke:#f1934c;stroke-width:16.9333;stroke-linecap:round;stroke-linejoin:round;paint-order:stroke fill markers"
         d="m 33.866669,-83.540896 a 113.90824,60.734808 0 0 0 -113.907261,60.734279 113.90824,60.734808 0 0 0 27.074317,39.123192 V 149.64177 H 120.69961 V 16.316575 A 113.90824,60.734808 0 0 0 147.77392,-22.806617 113.90824,60.734808 0 0 0 33.866669,-83.540896 Z" />
      <path
         style="display:inline;fill:none;stroke:#fad5af;stroke-width:12.7;stroke-linecap:round;stroke-linejoin:miter;stroke-dasharray:none;stroke-opacity:1"
         d="M -35.385291,96.333917 V 133.58827"
         id="path6" />
      <path
         style="display:inline;fill:none;stroke:#fad5af;stroke-width:12.7;stroke-linecap:round;stroke-linejoin:miter;stroke-dasharray:none;stroke-opacity:1"
         d="M 1.869062,133.58827 H -35.385291"
         id="path7" />
    </g>
  </g>
</svg>
