<?xml version="1.0" encoding="UTF-8" standalone="no"?>
<!-- Created with Inkscape (http://www.inkscape.org/) -->

<svg
   width="925.03113"
   height="945.32019"
   viewBox="0 0 244.74782 250.11596"
   version="1.1"
   id="svg1"
   inkscape:version="1.3 (0e150ed6c4, 2023-07-21)"
   sodipodi:docname="bread_slice_hot_sauce.svg"
   xmlns:inkscape="http://www.inkscape.org/namespaces/inkscape"
   xmlns:sodipodi="http://sodipodi.sourceforge.net/DTD/sodipodi-0.dtd"
   xmlns="http://www.w3.org/2000/svg"
   xmlns:svg="http://www.w3.org/2000/svg">
  <sodipodi:namedview
     id="namedview1"
     pagecolor="#ffffff"
     bordercolor="#666666"
     borderopacity="1.0"
     inkscape:showpageshadow="2"
     inkscape:pageopacity="0.0"
     inkscape:pagecheckerboard="0"
     inkscape:deskcolor="#d1d1d1"
     inkscape:document-units="mm"
     inkscape:zoom="0.3835122"
     inkscape:cx="578.86033"
     inkscape:cy="477.16865"
     inkscape:window-width="958"
     inkscape:window-height="1048"
     inkscape:window-x="953"
     inkscape:window-y="0"
     inkscape:window-maximized="0"
     inkscape:current-layer="layer1" />
  <defs
     id="defs1" />
  <g
     inkscape:label="Layer 1"
     inkscape:groupmode="layer"
     id="layer1"
     transform="translate(88.507242,92.007546)">
    <path
       id="rect1"
       style="fill:#feffe5;stroke:#f1934c;stroke-width:16.9333;stroke-linecap:round;stroke-linejoin:round;paint-order:stroke fill markers"
       d="m 33.866669,-83.540896 a 113.90824,60.734808 0 0 0 -113.907261,60.734279 113.90824,60.734808 0 0 0 27.074317,39.123192 V 149.64177 H 120.69961 V 16.316575 A 113.90824,60.734808 0 0 0 147.77392,-22.806617 113.90824,60.734808 0 0 0 33.866669,-83.540896 Z" />
    <path
       style="fill:none;stroke:#fad5af;stroke-width:12.7;stroke-linecap:round;stroke-linejoin:miter;stroke-opacity:1;stroke-dasharray:none"
       d="M -35.385291,96.333917 V 133.58827"
       id="path1" />
    <path
       style="fill:none;stroke:#fad5af;stroke-width:12.7;stroke-linecap:round;stroke-linejoin:miter;stroke-dasharray:none;stroke-opacity:1"
       d="M 1.869062,133.58827 H -35.385291"
       id="path2" />
    <rect
       style="fill:#81173f;stroke-width:5.53;stroke-linecap:round;stroke-linejoin:round;paint-order:stroke fill markers"
       id="rect3"
       width="4.8292685"
       height="2.759582"
       x="101.90391"
       y="43.901855"
       rx="1.4660279"
       ry="1.4660279" />
    <path
       id="path3"
       style="fill:#dc4926;fill-opacity:1;stroke:none;stroke-width:15.5028;stroke-linecap:round;stroke-linejoin:round;paint-order:stroke fill markers"
       d="m 33.866673,-73.691787 a 104.28578,55.604207 0 0 0 -104.284893,55.60372 104.28578,55.604207 0 0 0 24.787202,35.81825 V 139.79266 H 113.36437 V 17.730183 a 104.28578,55.604207 0 0 0 24.78719,-35.81825 104.28578,55.604207 0 0 0 -104.284887,-55.60372 z" />
  </g>
</svg>
