<?xml version="1.0" encoding="UTF-8" standalone="no"?>
<!-- Created with Inkscape (http://www.inkscape.org/) -->

<svg
   width="1009.0943"
   height="1009.0943"
   viewBox="0 0 266.98954 266.98954"
   version="1.1"
   id="svg1"
   inkscape:version="1.3 (0e150ed6c4, 2023-07-21)"
   sodipodi:docname="bun_top.svg"
   xmlns:inkscape="http://www.inkscape.org/namespaces/inkscape"
   xmlns:sodipodi="http://sodipodi.sourceforge.net/DTD/sodipodi-0.dtd"
   xmlns="http://www.w3.org/2000/svg"
   xmlns:svg="http://www.w3.org/2000/svg">
  <sodipodi:namedview
     id="namedview1"
     pagecolor="#ffffff"
     bordercolor="#666666"
     borderopacity="1.0"
     inkscape:showpageshadow="2"
     inkscape:pageopacity="0.0"
     inkscape:pagecheckerboard="0"
     inkscape:deskcolor="#d1d1d1"
     inkscape:document-units="mm"
     inkscape:zoom="0.3835122"
     inkscape:cx="256.83668"
     inkscape:cy="668.81836"
     inkscape:window-width="1920"
     inkscape:window-height="1057"
     inkscape:window-x="-8"
     inkscape:window-y="-8"
     inkscape:window-maximized="1"
     inkscape:current-layer="layer1"
     showguides="true">
    <sodipodi:guide
       position="-137.02694,112.45472"
       orientation="1,0"
       id="guide17"
       inkscape:locked="false" />
  </sodipodi:namedview>
  <defs
     id="defs1" />
  <g
     inkscape:label="Layer 1"
     inkscape:groupmode="layer"
     id="layer1"
     transform="translate(99.728634,94.513515)">
    <circle
       style="fill:#f1934c;stroke:none;stroke-width:6.34999;stroke-linecap:round;stroke-linejoin:round;paint-order:stroke fill markers"
       id="path17"
       cx="33.766132"
       cy="38.981251"
       r="133.49477" />
    <path
       id="circle17"
       style="fill:none;stroke:#be5a1e;stroke-width:25.4;stroke-linecap:round;stroke-linejoin:round;stroke-dasharray:none;paint-order:stroke fill markers"
       d="m -15.294454,132.19639 c -22.163163,0 -40.129953,-17.9668 -40.129951,-40.129959"
       sodipodi:nodetypes="cc" />
    <path
       style="display:inline;fill:#fad5af;stroke:none;stroke-width:1.54522px;stroke-linecap:butt;stroke-linejoin:miter;stroke-opacity:1"
       d="m -73.95746,36.814198 c 0,0 12.14136,-33.2669965 -5.890248,-32.3327066 -18.031581,0.934317 5.227911,31.5634406 5.890248,32.3327066 z"
       id="path2" />
    <path
       style="display:inline;fill:#fad5af;stroke:none;stroke-width:1.54522px;stroke-linecap:butt;stroke-linejoin:miter;stroke-opacity:1"
       d="m 97.423237,124.79146 c 0,0 23.512963,-26.481055 6.398833,-32.235898 -17.114107,-5.754834 -6.732265,31.277118 -6.398833,32.235898 z"
       id="path3" />
    <path
       style="display:inline;fill:#fad5af;stroke:none;stroke-width:1.54523px;stroke-linecap:butt;stroke-linejoin:miter;stroke-opacity:1"
       d="m 42.600439,-35.881248 c 0,0 -18.257049,30.3444628 -0.37773,32.8626896 17.87931,2.51820902 0.88137,-31.9813196 0.37773,-32.8626896 z"
       id="path4" />
    <path
       style="display:inline;fill:#fad5af;stroke:none;stroke-width:1.54523px;stroke-linecap:butt;stroke-linejoin:miter;stroke-opacity:1"
       d="m -24.419182,71.577663 c 0,0 -4.161267,35.168027 13.171581,30.109937 C 6.0852203,96.629514 -23.597617,72.173904 -24.419182,71.577663 Z"
       id="path7" />
    <path
       style="display:inline;fill:#fad5af;stroke:none;stroke-width:1.54522px;stroke-linecap:butt;stroke-linejoin:miter;stroke-opacity:1"
       d="m -42.246312,-46.439815 c 0,0 -33.758036,10.700532 -22.006853,24.408963 11.751191,13.7084217 21.802139,-23.414697 22.006853,-24.408963 z"
       id="path8" />
    <path
       style="display:inline;fill:#fad5af;stroke:none;stroke-width:1.54523px;stroke-linecap:butt;stroke-linejoin:miter;stroke-opacity:1"
       d="m 19.533403,28.809073 c 0,0 -18.2570492,30.344462 -0.37773,32.862689 17.87931,2.518209 0.88137,-31.981319 0.37773,-32.862689 z"
       id="path10" />
    <path
       style="display:inline;fill:#fad5af;stroke:none;stroke-width:1.54523px;stroke-linecap:butt;stroke-linejoin:miter;stroke-opacity:1"
       d="m -12.38629,0.36687412 c 0,0 -32.885082,13.14067488 -20.162835,25.95301188 12.722247,12.812319 20.031381,-24.9464429 20.162835,-25.95301188 z"
       id="path11" />
    <path
       style="display:inline;fill:#fad5af;stroke:none;stroke-width:1.54523px;stroke-linecap:butt;stroke-linejoin:miter;stroke-opacity:1"
       d="m -20.085319,-8.9260496 c 0,0 35.405306,0.75537 28.7016468,-16.0098114 C 1.9126778,-41.70107 -19.57096,-9.8012096 -20.085319,-8.9260496 Z"
       id="path12" />
    <path
       style="display:inline;fill:#fad5af;stroke:none;stroke-width:1.54522px;stroke-linecap:butt;stroke-linejoin:miter;stroke-opacity:1"
       d="m 68.690647,105.16293 c 0,0 -29.532887,-19.542624 -32.816186,-1.78789 -3.283317,17.75474 31.914008,2.25324 32.816186,1.78789 z"
       id="path13" />
    <path
       style="display:inline;fill:#fad5af;stroke:none;stroke-width:1.54522px;stroke-linecap:butt;stroke-linejoin:miter;stroke-opacity:1"
       d="m 144.75361,74.170155 c 0,0 -21.4218,-28.199519 -30.38447,-12.5253 -8.96269,15.67422 29.37921,12.666582 30.38447,12.5253 z"
       id="path14" />
    <path
       style="display:inline;fill:#fad5af;stroke:none;stroke-width:1.54523px;stroke-linecap:butt;stroke-linejoin:miter;stroke-opacity:1"
       d="m 65.46029,46.479631 c 0,0 13.991634,32.532138 26.468694,19.480941 C 104.40605,52.909375 66.469946,46.58485 65.46029,46.479631 Z"
       id="path15" />
    <path
       style="display:inline;fill:#fad5af;stroke:none;stroke-width:1.54522px;stroke-linecap:butt;stroke-linejoin:miter;stroke-opacity:1"
       d="m 47.714573,142.07166 c 0,0 32.35184,14.4036 32.661593,-3.64951 0.30978,-18.05311 -31.848533,3.04172 -32.661593,3.64951 z"
       id="path16" />
    <path
       style="display:inline;fill:#fad5af;stroke:none;stroke-width:1.54523px;stroke-linecap:butt;stroke-linejoin:miter;stroke-opacity:1"
       d="m 2.8035743,-80.334051 c 0,0 13.3717497,32.791804 26.0942487,19.97971 C 41.620295,-73.166424 3.8110343,-80.209689 2.8035743,-80.334051 Z"
       id="path9" />
    <path
       style="display:inline;fill:#fad5af;stroke:none;stroke-width:1.54523px;stroke-linecap:butt;stroke-linejoin:miter;stroke-opacity:1"
       d="m 79.948096,-46.65626 c 0,0 13.991634,32.532139 26.468694,19.480942 12.47707,-13.051198 -25.459038,-19.375723 -26.468694,-19.480942 z"
       id="path18" />
    <path
       style="display:inline;fill:#fad5af;stroke:none;stroke-width:1.54523px;stroke-linecap:butt;stroke-linejoin:miter;stroke-opacity:1"
       d="m 126.92493,-12.933536 c 0,0 -23.45803,26.529728 -6.33204,32.249094 17.126,5.71938 6.66747,-31.29099 6.33204,-32.249094 z"
       id="path19" />
    <path
       style="display:inline;fill:#fad5af;stroke:none;stroke-width:1.54523px;stroke-linecap:butt;stroke-linejoin:miter;stroke-opacity:1"
       d="m 71.511602,-9.4574194 c 0,0 -27.531918,22.2732964 -11.591181,30.7529434 15.940734,8.479629 11.763116,-29.7524909 11.591181,-30.7529434 z"
       id="path20" />
    <path
       style="display:inline;fill:#fad5af;stroke:none;stroke-width:1.54523px;stroke-linecap:butt;stroke-linejoin:miter;stroke-opacity:1"
       d="m 88.630195,-68.13557 c 0,0 -31.456428,-16.266508 -32.818881,1.737804 -1.362438,18.004301 31.971748,-1.17849 32.818881,-1.737804 z"
       id="path21" />
  </g>
</svg>
